<svg xmlns="http://www.w3.org/2000/svg" width="32" height="18" viewBox="0 0 32 18" fill="none">
  <path d="M12.7079 1.42318C2.35805 3.36609 0.923573 11.8773 0.736636 14.2522C0.712066 14.5644 0.477701 14.892 0.223202 15.0744C0.0840697 15.1742 0 15.3435 0 15.5147V17C0 17.5523 0.447715 18 1 18H30.6826C31.2348 18 31.6826 17.554 31.6826 17.0017V6.79222C31.6826 6.62742 31.7268 6.46974 31.7933 6.31895C32.4204 4.89661 31.4884 4.04509 30.7602 3.70956C30.6142 3.64229 30.4839 3.54096 30.4024 3.40244L30.372 3.3509C30.1255 2.9322 29.51 2.95019 29.3005 3.3886C29.227 3.54256 29.1061 3.65132 28.9519 3.72451C27.4243 4.4498 27.5636 5.57143 27.9398 6.25467C28.049 6.4529 28.1327 6.66866 28.1327 6.89495V12.8997C28.1327 13.0053 28.0769 13.0909 27.9713 13.0909C27.8771 13.0909 27.7668 13.0199 27.7514 12.9269C26.3862 4.65456 19.8337 1.84682 16.4003 1.41387C16.1819 1.38633 15.975 1.29752 15.8125 1.14907L15.2223 0.610026C14.8431 0.263677 14.2636 0.261253 13.877 0.599348C13.6204 0.823799 13.354 1.05354 13.1501 1.22218C13.0245 1.32613 12.8682 1.39309 12.7079 1.42318Z" fill="white"/>
</svg>