<svg width="97" height="93" viewBox="0 0 97 93" fill="none" xmlns="http://www.w3.org/2000/svg">
<path d="M9.96 68.71L3.48 83.95C3.34 84.33 3.12 84.63 2.82 84.85C2.54 85.05 2.23 85.15 1.89 85.15C1.35 85.15 0.95 85 0.69 84.7C0.43 84.4 0.3 84.03 0.3 83.59C0.3 83.41 0.33 83.22 0.39 83.02L7.86 65.08C8.02 64.68 8.26 64.37 8.58 64.15C8.92 63.93 9.28 63.84 9.66 63.88C10.02 63.88 10.35 63.99 10.65 64.21C10.97 64.41 11.2 64.7 11.34 65.08L18.72 82.66C18.82 82.92 18.87 83.16 18.87 83.38C18.87 83.92 18.69 84.35 18.33 84.67C17.99 84.99 17.61 85.15 17.19 85.15C16.83 85.15 16.5 85.04 16.2 84.82C15.92 84.6 15.7 84.3 15.54 83.92L9.09 68.89L9.96 68.71ZM4.41 80.29L6.06 76.84H14.16L14.73 80.29H4.41ZM32.0637 85.3C30.5437 85.3 29.1237 85.02 27.8037 84.46C26.4837 83.9 25.3237 83.13 24.3237 82.15C23.3237 81.15 22.5337 80 21.9537 78.7C21.3937 77.4 21.1137 76 21.1137 74.5C21.1137 73 21.3937 71.6 21.9537 70.3C22.5337 69 23.3237 67.86 24.3237 66.88C25.3237 65.88 26.4837 65.1 27.8037 64.54C29.1237 63.98 30.5437 63.7 32.0637 63.7C33.0037 63.7 33.9137 63.8 34.7937 64C35.6737 64.2 36.4837 64.5 37.2237 64.9C37.5237 65.06 37.7437 65.28 37.8837 65.56C38.0437 65.82 38.1237 66.09 38.1237 66.37C38.1237 66.85 37.9637 67.28 37.6437 67.66C37.3237 68.04 36.9137 68.23 36.4137 68.23C36.2537 68.23 36.0837 68.21 35.9037 68.17C35.7437 68.13 35.5837 68.07 35.4237 67.99C34.9237 67.77 34.3937 67.6 33.8337 67.48C33.2737 67.36 32.6837 67.3 32.0637 67.3C30.7637 67.3 29.5737 67.63 28.4937 68.29C27.4337 68.93 26.5837 69.8 25.9437 70.9C25.3237 71.98 25.0137 73.18 25.0137 74.5C25.0137 75.8 25.3237 77 25.9437 78.1C26.5837 79.2 27.4337 80.08 28.4937 80.74C29.5737 81.38 30.7637 81.7 32.0637 81.7C32.6637 81.7 33.3237 81.64 34.0437 81.52C34.7637 81.4 35.3537 81.24 35.8137 81.04L35.5437 81.94V76.81L36.0537 77.26H32.7237C32.2037 77.26 31.7637 77.09 31.4037 76.75C31.0637 76.41 30.8937 75.98 30.8937 75.46C30.8937 74.94 31.0637 74.51 31.4037 74.17C31.7637 73.83 32.2037 73.66 32.7237 73.66H37.6437C38.1637 73.66 38.5937 73.84 38.9337 74.2C39.2737 74.54 39.4437 74.97 39.4437 75.49V81.85C39.4437 82.25 39.3437 82.58 39.1437 82.84C38.9637 83.1 38.7537 83.31 38.5137 83.47C37.5937 84.03 36.5837 84.48 35.4837 84.82C34.4037 85.14 33.2637 85.3 32.0637 85.3ZM52.6223 64C53.6623 64 54.6323 64.3 55.5323 64.9C56.4523 65.5 57.1923 66.31 57.7523 67.33C58.3123 68.35 58.5923 69.49 58.5923 70.75C58.5923 71.99 58.3123 73.12 57.7523 74.14C57.1923 75.16 56.4523 75.98 55.5323 76.6C54.6323 77.2 53.6623 77.5 52.6223 77.5H47.1023L47.4023 76.96V83.17C47.4023 83.69 47.2423 84.13 46.9223 84.49C46.6023 84.83 46.1823 85 45.6623 85C45.1623 85 44.7523 84.83 44.4323 84.49C44.1123 84.13 43.9523 83.69 43.9523 83.17V65.83C43.9523 65.31 44.1223 64.88 44.4623 64.54C44.8223 64.18 45.2623 64 45.7823 64H52.6223ZM52.6223 74.08C53.0023 74.08 53.3723 73.92 53.7323 73.6C54.0923 73.28 54.3923 72.87 54.6323 72.37C54.8723 71.85 54.9923 71.31 54.9923 70.75C54.9923 70.17 54.8723 69.63 54.6323 69.13C54.3923 68.63 54.0923 68.23 53.7323 67.93C53.3723 67.61 53.0023 67.45 52.6223 67.45H47.0423L47.4023 66.91V74.56L47.0723 74.08H52.6223ZM69.4373 68.71L62.9573 83.95C62.8173 84.33 62.5973 84.63 62.2973 84.85C62.0173 85.05 61.7073 85.15 61.3673 85.15C60.8273 85.15 60.4273 85 60.1673 84.7C59.9073 84.4 59.7773 84.03 59.7773 83.59C59.7773 83.41 59.8073 83.22 59.8673 83.02L67.3373 65.08C67.4973 64.68 67.7373 64.37 68.0573 64.15C68.3973 63.93 68.7573 63.84 69.1373 63.88C69.4973 63.88 69.8273 63.99 70.1273 64.21C70.4473 64.41 70.6773 64.7 70.8173 65.08L78.1973 82.66C78.2973 82.92 78.3473 83.16 78.3473 83.38C78.3473 83.92 78.1673 84.35 77.8073 84.67C77.4673 84.99 77.0873 85.15 76.6673 85.15C76.3073 85.15 75.9773 85.04 75.6773 84.82C75.3973 84.6 75.1773 84.3 75.0173 83.92L68.5673 68.89L69.4373 68.71ZM63.8873 80.29L65.5373 76.84H73.6373L74.2073 80.29H63.8873ZM85.5375 83.17C85.5375 83.69 85.3475 84.13 84.9675 84.49C84.5875 84.83 84.1475 85 83.6475 85C83.0875 85 82.6375 84.83 82.2975 84.49C81.9575 84.13 81.7875 83.69 81.7875 83.17V65.83C81.7875 65.31 81.9675 64.88 82.3275 64.54C82.6875 64.18 83.1475 64 83.7075 64C84.1875 64 84.6075 64.18 84.9675 64.54C85.3475 64.88 85.5375 65.31 85.5375 65.83V83.17ZM94.6992 83.17C94.6992 83.69 94.5092 84.13 94.1292 84.49C93.7492 84.83 93.3092 85 92.8092 85C92.2492 85 91.7992 84.83 91.4592 84.49C91.1192 84.13 90.9492 83.69 90.9492 83.17V65.83C90.9492 65.31 91.1292 64.88 91.4892 64.54C91.8492 64.18 92.3092 64 92.8692 64C93.3492 64 93.7692 64.18 94.1292 64.54C94.5092 64.88 94.6992 65.31 94.6992 65.83V83.17Z" fill="#009788"/>
<path d="M1.24891 45.6711C0.951897 45.8589 0.638227 46.0843 0.373356 46.2856C0.134093 46.4675 0 46.7534 0 47.0539V54C0 54.5523 0.447715 55 1 55H95.0377C95.59 55 96.0377 54.5542 96.0377 54.0019V20.2415C96.0377 20.0779 96.0805 19.9215 96.1538 19.7752C98.5961 14.9059 95.2046 12.1138 92.8898 11.1822C92.6661 11.0921 92.4736 10.938 92.352 10.7298L91.2641 8.86751C90.8754 8.20203 89.9158 8.21018 89.5559 8.89164C89.2393 9.49089 88.9128 10.1347 88.6726 10.6661C88.5615 10.9118 88.36 11.1095 88.1134 11.2183C82.5963 13.6527 83.6661 17.7133 85.0708 19.7222C85.1998 19.9066 85.2772 20.1224 85.2772 20.3473V39.4207C85.2772 39.7407 85.1084 40 84.7885 40C84.5026 40 84.1683 39.7845 84.1221 39.5024C79.8917 13.6527 59.217 5.26447 49.0236 4.24159C48.8035 4.2195 48.6031 4.12923 48.4403 3.97936L44.789 0.61759C44.4089 0.267673 43.8255 0.264474 43.4405 0.60901C42.2263 1.69576 40.4355 3.27705 39.4706 4.05565C39.343 4.15858 39.1857 4.2263 39.0244 4.25545C6.01648 10.2205 2.51517 38.2234 2.18419 44.2784C2.15405 44.8299 1.71571 45.3759 1.24891 45.6711Z" fill="#009788"/>
</svg>
