<svg xmlns="http://www.w3.org/2000/svg" width="40" height="40" viewBox="0 0 40 40" fill="none">
  <mask id="mask0_17_22141" style="mask-type:luminance" maskUnits="userSpaceOnUse" x="6" y="17" width="31" height="17">
    <path d="M6.96094 17.2344H36.0967V33.026H6.96094V17.2344Z" fill="white"/>
  </mask>
  <g mask="url(#mask0_17_22141)">
    <path d="M36.0719 32.5499L35.6228 33.0053L17.7455 23.5308L6.99219 17.8803V17.2734L36.0719 32.5499Z" fill="#19473E"/>
  </g>
  <mask id="mask1_17_22141" style="mask-type:luminance" maskUnits="userSpaceOnUse" x="6" y="14" width="32" height="19">
    <path d="M6.96094 14.6641H37.9812V32.59H6.96094V14.6641Z" fill="white"/>
  </mask>
  <g mask="url(#mask1_17_22141)">
    <path d="M34.0343 23.9066C34.5781 24.0216 35.3922 24.6487 35.3922 24.6487L35.6252 24.3698L35.8108 24.4878L36.2404 24.7606L36.4321 24.6906L37.608 25.3123L37.9809 23.5802L28.3742 18.8094L19.9745 23.2282L7.97473 16.9157L8.58063 14.7031L6.98438 17.2755L18.338 23.2398L36.0671 32.5519L36.5835 30.1304L35.4402 29.4794L35.3183 29.2097L34.8887 28.9362L34.7039 28.8179L34.6262 28.3393C34.6262 28.3393 33.7377 27.9444 33.3127 27.3825C32.5361 26.3546 32.4078 24.9851 32.0397 24.6059C32.4552 24.7521 33.0712 23.7029 34.0343 23.9066Z" fill="#1E5B50"/>
  </g>
  <path d="M37.2284 25.6281L36.2863 25.1619L36.0936 25.2317L35.6642 24.9589L35.4784 24.8409L35.2454 25.1198C35.2454 25.1198 34.4306 24.4927 33.8877 24.3777C33.1777 24.2276 32.6566 24.7585 32.2643 24.9892C32.2153 24.849 32.1427 24.722 32.0469 24.6084C32.4632 24.7546 33.0791 23.7055 34.0422 23.9092C34.586 24.0241 35.4001 24.6512 35.4001 24.6512L35.6331 24.3723L35.8187 24.4904L36.2483 24.7631L36.4408 24.6931L37.6161 25.3148L37.2284 25.6281Z" fill="#19473E"/>
  <mask id="mask2_17_22141" style="mask-type:luminance" maskUnits="userSpaceOnUse" x="19" y="6" width="12" height="18">
    <path d="M19.9531 6.99219H30.8667V23.2622H19.9531V6.99219Z" fill="white"/>
  </mask>
  <g mask="url(#mask2_17_22141)">
    <path d="M19.9773 23.231C20.3502 21.7194 19.7918 19.835 22.9291 19.0103C27.4193 17.83 30.8572 15.9858 30.8572 15.9858L28.4183 7.00781C28.4183 7.00781 24.5967 8.52324 22.9281 8.86834C20.7993 9.30816 19.9766 10.7279 19.9766 12.8028L19.9773 23.231Z" fill="#EEEEEE"/>
  </g>
  <mask id="mask3_17_22141" style="mask-type:luminance" maskUnits="userSpaceOnUse" x="28" y="6" width="5" height="11">
    <path d="M28.3984 6.99219H32.0034V16.9413H28.3984V6.99219Z" fill="white"/>
  </mask>
  <g mask="url(#mask3_17_22141)">
    <path d="M28.4252 7.00781L30.8632 15.9858C30.8632 16.3504 31.6975 16.5865 31.984 16.9185L29.5095 7.92795C29.4153 7.58439 29.0565 7.64979 28.4219 7.00781L30.8601 15.9858C30.8601 16.3504 31.6944 16.5865 31.9809 16.9185" fill="#19473E"/>
  </g>
  <path d="M19.9773 23.2296L31.9771 16.9171C31.6907 16.5851 30.8564 16.349 30.8564 15.9844C30.8564 15.9844 27.4185 17.8285 22.9281 19.0089C19.7918 19.8335 20.3502 21.718 19.9766 23.2296" fill="white"/>
  <path d="M19.9764 23.2296L7.97656 16.9171C8.26321 16.5851 9.09751 16.349 9.09751 15.9844C9.09751 15.9844 12.5352 17.8285 17.0256 19.0089C20.1621 19.8335 19.6037 21.718 19.9771 23.2296" fill="white"/>
  <mask id="mask4_17_22141" style="mask-type:luminance" maskUnits="userSpaceOnUse" x="7" y="6" width="5" height="11">
    <path d="M7.95312 6.99219H11.5581V16.9413H7.95312V6.99219Z" fill="white"/>
  </mask>
  <g mask="url(#mask4_17_22141)">
    <path d="M11.534 7.00781L9.09751 15.9858C9.09751 16.3504 8.26321 16.5865 7.97656 16.9185L10.4513 7.92795C10.5452 7.58439 10.9042 7.64979 11.5387 7.00781L9.09751 15.9858C9.09751 16.3504 8.26321 16.5865 7.97656 16.9185" fill="#19473E"/>
  </g>
  <mask id="mask5_17_22141" style="mask-type:luminance" maskUnits="userSpaceOnUse" x="9" y="6" width="11" height="18">
    <path d="M9.08594 6.99219H19.9995V23.2622H9.08594V6.99219Z" fill="white"/>
  </mask>
  <g mask="url(#mask5_17_22141)">
    <path d="M19.9804 23.231C19.6077 21.7194 20.1662 19.835 17.0288 19.0103C12.5393 17.8323 9.10156 15.9858 9.10156 15.9858L11.5381 7.00781C11.5381 7.00781 15.3597 8.52324 17.0281 8.86834C19.1571 9.30816 19.9796 10.7279 19.9796 12.8028L19.9804 23.231Z" fill="#EEEEEE"/>
  </g>
  <path d="M27.437 19.3047L26.7923 19.6436L31.5724 22.0448L29.8712 27.0962L21.0506 22.6643L20.3672 23.0232L30.2279 28.0148L32.242 21.7364L27.437 19.3047Z" fill="#19473E"/>
  <path d="M2.39062 25.2367L3.56655 24.6152L3.75849 24.685L4.18789 24.4122L4.37365 24.2942L4.60667 24.5731C4.60667 24.5731 5.42149 23.946 5.96431 23.831C6.92747 23.6273 7.5434 24.6765 7.95988 24.5303C7.86381 24.6439 7.79128 24.7708 7.74228 24.9111C7.35397 24.6781 6.8289 24.1495 6.11902 24.2996C5.57523 24.4146 4.76119 25.0417 4.76119 25.0417L4.52816 24.7627L4.34259 24.8808L3.913 25.1536L3.72106 25.0837L2.77816 25.55L2.39062 25.2367Z" fill="#19473E"/>
  <path d="M29.7731 19.5104L33.0097 17.8092V17.2031L29.1797 19.2151L29.7731 19.5104Z" fill="#19473E"/>
  <path d="M19.3386 24.3828L3.92969 32.4781L4.37857 32.9326L19.9251 24.6936L19.3386 24.3828Z" fill="#19473E"/>
  <path d="M28.375 18.8079L29.1806 19.2074L33.0106 17.1954L31.2894 14.4219L31.9751 16.9142L28.375 18.8079Z" fill="#1E5B50"/>
  <mask id="mask6_17_22141" style="mask-type:luminance" maskUnits="userSpaceOnUse" x="2" y="19" width="18" height="14">
    <path d="M2.02344 19.4531H19.3612V32.4902H2.02344V19.4531Z" fill="white"/>
  </mask>
  <g mask="url(#mask6_17_22141)">
    <path d="M17.7478 23.5293L10.079 19.5L2.02344 23.5006L2.39323 25.2344L3.56916 24.6127L3.76109 24.6825L4.19049 24.4097L4.37625 24.2917L4.60928 24.5706C4.60928 24.5706 5.42409 23.9435 5.96692 23.8285C6.93007 23.6248 7.54601 24.674 7.96248 24.528C7.59423 24.907 7.46769 26.2764 6.68933 27.3046C6.26437 27.8663 5.37587 28.2612 5.37587 28.2612L5.29813 28.7398L5.11333 28.858L4.68374 29.1316L4.56182 29.4012L3.4185 30.0525L3.93509 32.4732L19.3471 24.3771L17.7478 23.5293Z" fill="#1E5B50"/>
  </g>
  <path d="M17.7468 23.5298L17.4291 23.3628L10.0036 27.0937L8.30237 22.0423L11.6835 20.3437L11.0435 20.0078L7.63281 21.7339L9.64689 28.0122L18.1158 23.7256L17.7468 23.5298Z" fill="#19473E"/>
  <path d="M27.7867 15.4609C26.4663 16.0344 25.0938 16.5784 22.6361 17.2242C21.2692 17.5832 20.6043 18.1444 20.2578 18.7877" stroke="#E09F00" stroke-width="2.0977" stroke-linecap="round" stroke-linejoin="round"/>
  <path d="M28.4671 13.7109C26.5747 14.536 24.6311 15.2138 22.6361 15.7447C21.2692 16.1037 20.6043 16.6646 20.2578 17.3082" stroke="#E09F00" stroke-width="2.0977" stroke-linecap="round" stroke-linejoin="round"/>
  <path d="M28.3024 12.4609C26.4619 13.2543 24.5732 13.9083 22.6361 14.4231C21.2692 14.7821 20.6043 15.3433 20.2578 15.9866" stroke="#E09F00" stroke-width="2.0977" stroke-linecap="round" stroke-linejoin="round"/>
  <path d="M28.0431 11.3281C26.2844 12.0733 24.4822 12.691 22.6361 13.1807C21.2692 13.5397 20.6043 14.1009 20.2578 14.7444" stroke="#E09F00" stroke-width="2.0977" stroke-linecap="round" stroke-linejoin="round"/>
  <path d="M27.5607 9.125C26.3334 9.59124 24.1027 10.4103 22.932 10.6528C21.4943 10.9497 20.6531 11.6943 20.2578 12.7845" stroke="#E09F00" stroke-width="2.0977" stroke-linecap="round" stroke-linejoin="round"/>
  <path d="M27.8193 10.1953C26.6753 10.6353 24.1913 11.5616 22.932 11.8219C21.4943 12.1187 20.6531 12.8631 20.2578 13.9536" stroke="#E09F00" stroke-width="2.0977" stroke-linecap="round" stroke-linejoin="round"/>
  <path d="M12.1406 15.4609C13.461 16.0344 14.8335 16.5784 17.2911 17.2242C18.6582 17.5832 19.3231 18.1444 19.6696 18.7877" stroke="#E09F00" stroke-width="2.0977" stroke-linecap="round" stroke-linejoin="round"/>
  <path d="M11.4609 13.7109C13.3535 14.5358 15.2974 15.2138 17.2925 15.7447C18.6596 16.1037 19.3246 16.6646 19.671 17.3082" stroke="#E09F00" stroke-width="2.0977" stroke-linecap="round" stroke-linejoin="round"/>
  <path d="M11.625 12.4609C13.4668 13.2543 15.3569 13.9085 17.2953 14.4231C18.6622 14.7821 19.3272 15.3433 19.6736 15.9866" stroke="#E09F00" stroke-width="2.0977" stroke-linecap="round" stroke-linejoin="round"/>
  <path d="M11.8828 11.3281C13.6415 12.0733 15.4438 12.691 17.2896 13.1807C18.6567 13.5397 19.3217 14.1009 19.6681 14.7444" stroke="#E09F00" stroke-width="2.0977" stroke-linecap="round" stroke-linejoin="round"/>
  <path d="M12.3672 9.125C13.5937 9.59124 15.8244 10.4103 16.9957 10.6528C18.4334 10.9497 19.2746 11.6943 19.67 12.7845" stroke="#E09F00" stroke-width="2.0977" stroke-linecap="round" stroke-linejoin="round"/>
  <path d="M12.1094 10.1953C13.2535 10.6353 15.7375 11.5616 16.9965 11.8219C18.4342 12.1187 19.2755 12.8631 19.6709 13.9536" stroke="#E09F00" stroke-width="2.0977" stroke-linecap="round" stroke-linejoin="round"/>
</svg>