<svg xmlns="http://www.w3.org/2000/svg" width="40" height="40" viewBox="0 0 40 40" fill="none">
  <mask id="mask0_17_22206" style="mask-type:luminance" maskUnits="userSpaceOnUse" x="22" y="7" width="17" height="14">
    <path d="M22.0703 7.50781H38.2254V20.051H22.0703V7.50781Z" fill="white"/>
  </mask>
  <g mask="url(#mask0_17_22206)">
    <path d="M22.1172 10.0424C26.7241 11.0166 30.1934 15.1136 30.1934 20.0066H38.2304L32.4841 17.901C31.5937 12.6088 27.409 8.42284 22.1172 7.53125V10.0424Z" fill="#1E5B50"/>
  </g>
  <mask id="mask1_17_22206" style="mask-type:luminance" maskUnits="userSpaceOnUse" x="7" y="1" width="14" height="17">
    <path d="M7.50781 1.78125H20.051V17.9225H7.50781V1.78125Z" fill="white"/>
  </mask>
  <g mask="url(#mask1_17_22206)">
    <path d="M10.0426 17.8945C11.0162 13.287 15.1136 9.81829 20.0068 9.81829V1.78125L17.9008 7.52759C12.6088 8.41802 8.42303 12.6024 7.53125 17.8945H10.0426Z" fill="#19473E"/>
  </g>
  <mask id="mask2_17_22206" style="mask-type:luminance" maskUnits="userSpaceOnUse" x="1" y="20" width="17" height="13">
    <path d="M1.78125 20H17.9225V32.4938H1.78125V20Z" fill="white"/>
  </mask>
  <g mask="url(#mask2_17_22206)">
    <path d="M17.8943 29.9721C13.2874 28.9982 9.81829 24.9006 9.81829 20.0078H1.78125L7.52739 22.1131C8.41802 27.4056 12.6022 31.5913 17.8943 32.4831V29.9721Z" fill="#1E5B50"/>
  </g>
  <mask id="mask3_17_22206" style="mask-type:luminance" maskUnits="userSpaceOnUse" x="20" y="22" width="13" height="17">
    <path d="M20 22.0703H32.4938V38.2254H20V22.0703Z" fill="white"/>
  </mask>
  <g mask="url(#mask3_17_22206)">
    <path d="M29.9719 22.1172C28.9978 26.7246 24.9009 30.1936 20.0078 30.1936V38.2304L22.1137 32.4845C27.4058 31.594 31.5913 27.4096 32.4831 22.1172H29.9719Z" fill="#19473E"/>
  </g>
  <path d="M20.0071 29.0758C15.0062 29.0758 10.9375 25.0075 10.9375 20.0066C10.9375 15.0056 15.0062 10.9375 20.0071 10.9375C25.0081 10.9375 29.0766 15.0058 29.0766 20.0066C29.0766 25.0071 25.0077 29.0758 20.0071 29.0758ZM20.0071 11.1977C15.1497 11.1977 11.1979 15.1493 11.1979 20.0066C11.1979 24.8638 15.1497 28.8154 20.0071 28.8154C24.8646 28.8154 28.8162 24.8638 28.8162 20.0066C28.8162 15.1493 24.8646 11.1977 20.0071 11.1977Z" fill="#19473E"/>
  <path d="M20.0068 15.0156L14.8047 24.0257L20.0068 22.195L25.2086 24.0257L20.0068 15.0156Z" fill="#1E5B50"/>
  <path d="M20.0078 15.0156V22.195L25.2096 24.0257L20.0078 15.0156Z" fill="#19473E"/>
  <mask id="mask4_17_22206" style="mask-type:luminance" maskUnits="userSpaceOnUse" x="20" y="14" width="7" height="14">
    <path d="M20 14.5547H26.3312V27.7769H20V14.5547Z" fill="white"/>
  </mask>
  <g mask="url(#mask4_17_22206)">
    <path d="M26.3302 24.1419L20.0391 27.7655V14.5703L26.3302 16.9334V24.1419Z" fill="black"/>
  </g>
  <path d="M26.0292 19.8874L24.4141 19.9181V19.3672L26.0292 19.4312V19.8874Z" fill="#EABD00"/>
  <path d="M24.5703 19.8574C24.5018 19.8574 24.4453 19.7619 24.4453 19.6421C24.4453 19.5225 24.5018 19.4274 24.5703 19.4297L25.9144 19.4749C25.9638 19.4764 26.0034 19.5588 26.0034 19.6583C26.0034 19.758 25.9638 19.8396 25.9144 19.8402L24.5703 19.8574Z" fill="#D6A200"/>
  <path d="M23.8162 25.2885L21.375 26.6432V19.2266L23.8162 19.3274V25.2885Z" fill="#EABD00"/>
  <mask id="mask5_17_22206" style="mask-type:luminance" maskUnits="userSpaceOnUse" x="20" y="17" width="7" height="2">
    <path d="M20 17.4844H26.3312V18.9659H20V17.4844Z" fill="white"/>
  </mask>
  <g mask="url(#mask5_17_22206)">
    <path d="M26.3302 18.9602L20.0391 18.2995V17.4922L26.3302 18.5215V18.9602Z" fill="#EABD00"/>
  </g>
  <path d="M21.1118 19.5582C21.0858 19.5155 21.0169 19.5009 21.0019 19.4503C20.9914 19.415 21.0412 19.3923 21.0381 19.3628C21.0318 19.2981 20.9205 19.3184 20.9205 19.2266H20.8728C20.8728 19.319 20.7586 19.2906 20.7521 19.3562C20.749 19.3861 20.8005 19.4112 20.7897 19.4474C20.7742 19.4984 20.7023 19.5107 20.6745 19.5537C20.6573 19.5834 20.6467 19.6155 20.6425 19.6496C20.6384 19.6835 20.6409 19.7171 20.6504 19.7503C20.6678 19.8101 20.7013 19.8587 20.7509 19.8963C20.7677 19.9098 20.8967 19.97 20.8967 19.9845C20.8967 19.97 21.0231 19.9065 21.0393 19.893C21.086 19.8554 21.1176 19.8078 21.1338 19.7499C21.1429 19.7177 21.1456 19.6851 21.1417 19.6519C21.1379 19.6187 21.128 19.5875 21.1118 19.5582Z" fill="#EABD00"/>
  <path d="M20.9009 19.8871C20.8835 19.8766 20.8609 19.8643 20.8316 19.8487C20.8195 19.8419 20.7944 19.8288 20.7894 19.8255C20.7545 19.7989 20.7305 19.7646 20.7176 19.7225C20.7055 19.6805 20.7099 19.6401 20.7309 19.6018C20.7408 19.5927 20.7514 19.585 20.7629 19.5784C20.8077 19.5562 20.8382 19.5215 20.855 19.4746C20.8658 19.4397 20.8627 19.406 20.8459 19.3734C20.8671 19.3645 20.8858 19.3519 20.9022 19.3359C20.918 19.3529 20.9364 19.3664 20.9572 19.3766C20.9398 19.4083 20.9366 19.4415 20.9472 19.476C20.963 19.5229 20.9927 19.558 21.0363 19.5813C21.0473 19.5883 21.0577 19.596 21.067 19.605C21.0866 19.6427 21.0909 19.6818 21.0797 19.7225C21.0672 19.764 21.0436 19.7981 21.0095 19.8247C21.006 19.8271 20.9807 19.8411 20.9699 19.8473C20.9398 19.8641 20.9178 19.8764 20.9009 19.8871Z" fill="#D6A200"/>
  <path d="M24.2418 19.6078C24.2269 19.5758 24.1868 19.5652 24.1796 19.5272C24.1737 19.4996 24.202 19.4832 24.2003 19.4608C24.1964 19.4124 24.1337 19.4284 24.1337 19.3594H24.1067C24.1067 19.4286 24.0429 19.408 24.039 19.4574C24.0375 19.4799 24.0666 19.499 24.0602 19.5255C24.0514 19.5635 24.0112 19.5731 23.9956 19.6053C23.9759 19.653 23.9715 19.702 23.9823 19.7523C23.9904 19.7942 24.0087 19.8308 24.0375 19.8623C24.0467 19.8723 24.12 19.9174 24.12 19.9286C24.12 19.918 24.1914 19.8706 24.2005 19.8603C24.2284 19.8295 24.2462 19.7936 24.2543 19.7529C24.2647 19.7033 24.2607 19.6549 24.2418 19.6078Z" fill="#EABD00"/>
  <path d="M24.122 19.8564C24.1124 19.8483 24.0996 19.8392 24.0829 19.8288C24.0763 19.8238 24.0622 19.8138 24.0595 19.8112C24.0389 19.7894 24.0254 19.7636 24.0194 19.7341C24.0126 19.7034 24.0149 19.6735 24.0265 19.6442C24.0319 19.6376 24.0381 19.6317 24.0447 19.6263C24.0564 19.6178 24.0666 19.6077 24.0749 19.596C24.0834 19.584 24.0896 19.5713 24.0938 19.5574C24.0979 19.5435 24.0996 19.5292 24.0991 19.5148C24.0985 19.5003 24.0956 19.4862 24.0904 19.4727C24.1029 19.4658 24.1133 19.4567 24.122 19.4453C24.1305 19.4575 24.1411 19.4675 24.1536 19.4754C24.144 19.4999 24.1421 19.5248 24.1479 19.5503C24.1552 19.5819 24.1716 19.6077 24.1974 19.6274C24.2038 19.6326 24.2096 19.6386 24.2148 19.6454C24.2258 19.6741 24.2283 19.7034 24.2219 19.7337C24.2158 19.7628 24.2024 19.7885 24.1822 19.8105L24.16 19.8273C24.144 19.8392 24.1317 19.8475 24.122 19.8564Z" fill="#D6A200"/>
  <path d="M26.243 19.6331C26.2338 19.608 26.2094 19.5995 26.2042 19.5694C26.2004 19.5486 26.2181 19.5349 26.217 19.5172C26.2148 19.479 26.1757 19.4919 26.1757 19.4375H26.1589C26.1589 19.4925 26.119 19.4763 26.1169 19.5147C26.1169 19.5326 26.1336 19.5475 26.13 19.5685C26.1246 19.5984 26.0995 19.6061 26.0898 19.6314C26.0779 19.6694 26.075 19.7078 26.0816 19.7469C26.0864 19.7784 26.098 19.8071 26.1163 19.8331C26.1223 19.841 26.1672 19.8771 26.1672 19.8856C26.1672 19.8771 26.2118 19.8397 26.2175 19.8306C26.2353 19.805 26.2465 19.7768 26.2511 19.7459C26.2573 19.7078 26.2546 19.6701 26.243 19.6331Z" fill="#EABD00"/>
  <path d="M26.1676 19.8258C26.1614 19.8198 26.1537 19.8123 26.1433 19.803C26.1393 19.7992 26.1304 19.7911 26.1288 19.7892C26.1157 19.771 26.1072 19.7508 26.1038 19.7288C26.0997 19.7047 26.1013 19.6809 26.1084 19.6576C26.1115 19.6524 26.1153 19.6478 26.1198 19.6437C26.1371 19.6267 26.1477 19.6061 26.1516 19.582C26.1553 19.5619 26.1541 19.5421 26.1481 19.5226C26.156 19.5164 26.1626 19.5089 26.1676 19.5C26.1726 19.5093 26.1792 19.5172 26.1873 19.5237C26.1813 19.543 26.18 19.5627 26.1838 19.5826C26.1873 19.6069 26.1977 19.6275 26.2153 19.6447C26.2193 19.6491 26.2228 19.6537 26.2259 19.6588C26.2328 19.6817 26.2344 19.7051 26.2305 19.7288C26.227 19.751 26.2187 19.771 26.2056 19.7892C26.2056 19.7907 26.1956 19.7992 26.1917 19.8027C26.1813 19.8131 26.1736 19.8198 26.1676 19.8258Z" fill="#D6A200"/>
  <path d="M25.3359 18.6029C25.3359 18.4802 25.3884 18.3892 25.4521 18.3992L26.1753 18.5153C26.2275 18.5236 26.2698 18.6191 26.2698 18.7285C26.2698 18.8384 26.2275 18.921 26.1753 18.916L25.4521 18.8379C25.3884 18.8311 25.3359 18.726 25.3359 18.6029Z" fill="#EABD00"/>
  <path d="M25.4477 18.7888C25.3993 18.7834 25.3594 18.7027 25.3594 18.6094C25.3594 18.516 25.3993 18.446 25.4477 18.4537L26.1709 18.565C26.2108 18.5714 26.2432 18.6443 26.2432 18.728C26.2432 18.8117 26.2108 18.876 26.1709 18.8717L25.4477 18.7888Z" fill="#D6A200"/>
  <path d="M24.125 18.442C24.125 18.3016 24.1933 18.1989 24.2762 18.2121L25.2056 18.3594C25.2722 18.3701 25.3254 18.4783 25.3254 18.6013C25.3254 18.7242 25.2722 18.8182 25.2056 18.811L24.2762 18.7105C24.1933 18.7022 24.125 18.5811 24.125 18.442Z" fill="#EABD00"/>
  <path d="M24.279 18.6489C24.216 18.6414 24.1641 18.5488 24.1641 18.4422C24.1641 18.3357 24.216 18.2568 24.279 18.2664L25.2079 18.4103C25.2588 18.4182 25.2995 18.5012 25.2995 18.5953C25.2995 18.6895 25.2588 18.7604 25.2079 18.7554L24.279 18.6489Z" fill="#D6A200"/>
  <path d="M22.5078 18.2261C22.5078 18.0625 22.6006 17.9448 22.7131 17.9627L23.9511 18.1616C24.0383 18.1753 24.1077 18.2992 24.1077 18.4411C24.1077 18.5816 24.0383 18.6888 23.9511 18.6788L22.7131 18.5447C22.6018 18.5326 22.5078 18.3889 22.5078 18.2261Z" fill="#EABD00"/>
  <path d="M22.7109 18.4698C22.6255 18.4601 22.5547 18.3507 22.5547 18.2261C22.5547 18.1015 22.6255 18.0114 22.7109 18.0247L23.949 18.2159C24.0155 18.2261 24.0693 18.3218 24.0693 18.4298C24.0693 18.5377 24.0155 18.6189 23.949 18.6114L22.7109 18.4698Z" fill="#D6A200"/>
  <path d="M20.25 17.921C20.25 17.7244 20.3835 17.5865 20.5444 17.6125L22.2776 17.8907C22.3964 17.9096 22.4915 18.0577 22.4915 18.2209C22.4915 18.3861 22.3964 18.5076 22.2776 18.4947L20.5444 18.3076C20.3835 18.2908 20.25 18.1172 20.25 17.921Z" fill="#EABD00"/>
  <path d="M20.5443 18.2216C20.4218 18.2075 20.3203 18.0746 20.3203 17.9255C20.3203 17.7763 20.4218 17.6706 20.5443 17.6897L22.2775 17.9569C22.3685 17.971 22.4426 18.0846 22.4426 18.2104C22.4426 18.3361 22.3695 18.4305 22.2775 18.4197L20.5443 18.2216Z" fill="#D6A200"/>
  <path d="M20.2839 20.7638C20.2541 20.7212 20.1764 20.7127 20.1592 20.66C20.1475 20.6237 20.2038 20.5942 20.2005 20.563C20.1932 20.4947 20.0668 20.5277 20.0668 20.4297L20.0393 20.431V20.4818C20.0584 20.5182 20.0879 20.5416 20.128 20.5516C20.1398 20.5553 20.1511 20.5605 20.1617 20.567C20.1596 20.5703 20.1562 20.5746 20.1538 20.5774C20.1409 20.5906 20.132 20.606 20.1272 20.6237C20.1224 20.6415 20.122 20.6592 20.1263 20.6772C20.1427 20.7165 20.1706 20.7441 20.2104 20.7597C20.2281 20.7675 20.2433 20.7783 20.2567 20.7921C20.2713 20.8166 20.2802 20.8429 20.2837 20.871C20.2871 20.8994 20.2848 20.927 20.2765 20.9542C20.2588 21.0099 20.2271 21.056 20.1816 21.0927C20.1764 21.0971 20.1515 21.1122 20.1315 21.1245C20.0883 21.1521 20.0585 21.17 20.0391 21.1849V21.2381C20.0391 21.2229 20.1826 21.1419 20.2011 21.1259C20.2532 21.0829 20.2891 21.0286 20.3084 20.9638C20.3186 20.9303 20.3215 20.8961 20.3172 20.8612C20.313 20.8265 20.302 20.7939 20.2839 20.7638Z" fill="#EABD00"/>
  <path d="M20.117 21.0921C20.1293 21.0846 20.1579 21.067 20.1617 21.0645C20.1999 21.0339 20.2266 20.9953 20.2416 20.9486C20.2545 20.9054 20.2499 20.8641 20.2273 20.8247C20.2165 20.8161 20.2048 20.8085 20.192 20.8026C20.1432 20.7829 20.1097 20.7486 20.0908 20.6994C20.0792 20.6619 20.083 20.6263 20.1027 20.5923C20.079 20.584 20.0578 20.5713 20.0391 20.5547V21.1413C20.0584 21.1284 20.083 21.1137 20.117 21.0921Z" fill="#EABD00"/>
  <path d="M20.2839 22.056C20.2541 22.0161 20.1764 22.0149 20.1592 21.964C20.1475 21.9289 20.2038 21.894 20.2005 21.8631C20.1932 21.7954 20.0668 21.8406 20.0668 21.7422L20.0393 21.7464V21.7974C20.0485 21.8139 20.0609 21.8276 20.0765 21.8384C20.0919 21.8492 20.1091 21.856 20.128 21.8587C20.1398 21.8612 20.1509 21.8655 20.1617 21.871C20.1596 21.8747 20.1562 21.879 20.1538 21.8824C20.1386 21.9031 20.1106 21.9415 20.1263 21.9847C20.1419 22.0279 20.1778 22.0439 20.2104 22.0585C20.2279 22.0643 20.2433 22.0734 20.2567 22.0859C20.2713 22.1101 20.2806 22.1359 20.284 22.1639C20.2873 22.1918 20.285 22.2192 20.2765 22.2462C20.2586 22.3043 20.2269 22.3539 20.1816 22.3944C20.1764 22.3992 20.1515 22.417 20.1315 22.431C20.0883 22.4621 20.0585 22.4833 20.0391 22.5001V22.5535C20.0391 22.5381 20.1826 22.4434 20.2011 22.4258C20.2526 22.3784 20.2885 22.3209 20.3084 22.2536C20.3274 22.1857 20.3217 22.107 20.2839 22.056Z" fill="#EABD00"/>
  <path d="M20.117 22.3979C20.1293 22.3894 20.1579 22.3689 20.1617 22.3656C20.1996 22.3317 20.2262 22.2904 20.2416 22.242C20.2549 22.1992 20.2501 22.1583 20.2273 22.1195C20.2163 22.1116 20.2046 22.1054 20.192 22.1006C20.1558 22.0846 20.1095 22.0643 20.0908 22.0072C20.0794 21.9694 20.0832 21.9334 20.1027 21.8988C20.0792 21.8928 20.058 21.8824 20.0391 21.8672V22.4548C20.0584 22.4397 20.083 22.422 20.117 22.3979Z" fill="#EABD00"/>
  <path d="M20.2839 23.3475C20.2541 23.3107 20.1764 23.3166 20.1592 23.2677C20.1475 23.2333 20.2038 23.1932 20.2005 23.1625C20.1932 23.0958 20.0668 23.1531 20.0668 23.0547L20.0393 23.0612V23.1122C20.0578 23.1525 20.1002 23.1598 20.128 23.165C20.1396 23.1664 20.1509 23.1695 20.1617 23.1739C20.1596 23.1778 20.1562 23.1824 20.1538 23.1861C20.1386 23.208 20.1106 23.2495 20.1263 23.2912C20.1419 23.3327 20.1778 23.3462 20.2104 23.357C20.2277 23.3612 20.2432 23.3691 20.2567 23.3809C20.2842 23.4158 20.2923 23.4777 20.2765 23.5391C20.258 23.5992 20.2264 23.6515 20.1816 23.6959C20.1764 23.7011 20.1515 23.7212 20.1315 23.7376C20.0883 23.7725 20.0585 23.7964 20.0391 23.8151V23.8685C20.0391 23.8533 20.1826 23.7449 20.2011 23.7254C20.2522 23.6735 20.2881 23.6128 20.3084 23.5429C20.3274 23.4733 20.3217 23.3948 20.2839 23.3475Z" fill="#EABD00"/>
  <path d="M20.117 23.7038C20.1293 23.694 20.1579 23.6708 20.1617 23.6671C20.1994 23.6301 20.2258 23.5863 20.2416 23.536C20.2553 23.4933 20.2505 23.453 20.2273 23.4148C20.2163 23.4079 20.2046 23.4027 20.192 23.3994C20.1558 23.3869 20.1095 23.372 20.0908 23.3155C20.0794 23.2773 20.0832 23.2405 20.1027 23.2055C20.0796 23.2017 20.0584 23.193 20.0391 23.1797V23.7671C20.0584 23.7516 20.083 23.731 20.117 23.7038Z" fill="#EABD00"/>
  <path d="M20.2837 24.6405C20.254 24.6064 20.1762 24.6199 20.159 24.5724C20.1473 24.5393 20.2036 24.4937 20.2003 24.4625C20.193 24.3961 20.0666 24.4656 20.0666 24.3672L20.0391 24.3763V24.4272C20.0576 24.4658 20.1 24.469 20.1278 24.4715C20.1392 24.4717 20.1506 24.4737 20.1616 24.4773C20.159 24.4816 20.1565 24.4858 20.1536 24.4899C20.1384 24.5136 20.1104 24.5576 20.1261 24.5981C20.1417 24.6386 20.1776 24.6477 20.2102 24.656C20.2273 24.6583 20.2428 24.6646 20.2565 24.6753C20.284 24.7073 20.2921 24.7688 20.2763 24.8315C20.2578 24.8936 20.2268 24.9488 20.183 24.9966C20.1778 25.002 20.1531 25.024 20.133 25.0427C20.0898 25.0819 20.0601 25.1089 20.0404 25.1295V25.1826C20.0404 25.1675 20.1841 25.045 20.2026 25.024C20.2534 24.9683 20.2891 24.904 20.3099 24.8315C20.3273 24.7619 20.3215 24.6843 20.2837 24.6405Z" fill="#EABD00"/>
  <path d="M20.117 25.0143C20.1293 25.0033 20.1579 24.9774 20.1617 24.9734C20.1988 24.9334 20.2254 24.8877 20.2416 24.8356C20.2538 24.7878 20.248 24.7398 20.2273 24.716C20.2161 24.7101 20.2044 24.706 20.192 24.7039C20.1558 24.6946 20.1095 24.6831 20.0908 24.6296C20.0798 24.5912 20.0838 24.5546 20.1027 24.5195C20.08 24.5179 20.0587 24.5114 20.0391 24.5V25.0872C20.0584 25.0675 20.083 25.0449 20.117 25.0143Z" fill="#EABD00"/>
  <path d="M20.3774 19.2086L20.0391 19.1953V19.2337C20.21 19.2399 20.3458 19.405 20.3458 19.6019C20.3458 19.7989 20.2102 19.9598 20.0394 19.9636V20.0024L20.3778 19.996L20.3774 19.2086Z" fill="#EABD00"/>
  <path d="M20.3055 19.6001C20.3055 19.4292 20.1874 19.2861 20.0391 19.2812V19.5185C20.0487 19.5195 20.058 19.5222 20.0666 19.5266C20.0751 19.5313 20.0827 19.5372 20.089 19.5448C20.0952 19.5521 20.0998 19.5606 20.1029 19.5698C20.106 19.5791 20.1072 19.5885 20.1066 19.5982C20.1072 19.6078 20.106 19.6173 20.1029 19.6265C20.0998 19.6356 20.0952 19.6439 20.0888 19.6512C20.0825 19.6586 20.0751 19.6644 20.0665 19.6688C20.0578 19.6732 20.0487 19.6759 20.0391 19.6767V19.9136C20.1874 19.9117 20.3055 19.7714 20.3055 19.6001Z" fill="#D6A200"/>
  <path d="M23.5 20.2341L21.8281 20.3134V19.8508L23.5 19.8359V20.2341Z" fill="#D6A200"/>
  <path d="M21.6113 19.3985C21.6798 19.4004 21.7351 19.4752 21.7351 19.5649C21.7351 19.6546 21.68 19.7278 21.6113 19.7276C21.5424 19.7272 21.4844 19.6529 21.4844 19.5624C21.4844 19.4718 21.5417 19.3965 21.6113 19.3985Z" fill="#D6A200"/>
  <path d="M22.7292 19.4298C22.7859 19.4315 22.8316 19.4992 22.8316 19.5806C22.8316 19.662 22.7859 19.7288 22.7292 19.7288C22.6725 19.7288 22.625 19.6611 22.625 19.5775C22.625 19.4942 22.6721 19.4271 22.7292 19.4298Z" fill="#D6A200"/>
  <path d="M22.0395 19.4141L22.4078 19.4247C22.468 19.4262 22.5162 19.4959 22.5162 19.5802C22.5162 19.6643 22.468 19.7322 22.4078 19.7322H22.0395C21.9749 19.7322 21.9219 19.6602 21.9219 19.5719C21.9219 19.4835 21.9749 19.4125 22.0395 19.4141Z" fill="#D6A200"/>
  <path d="M23.0365 19.4375L23.3459 19.446C23.3968 19.446 23.4375 19.5116 23.4375 19.5886C23.4375 19.6655 23.3968 19.7286 23.3459 19.7284H23.0365C22.9813 19.7284 22.9375 19.6626 22.9375 19.5816C22.9375 19.5008 22.9823 19.4358 23.0365 19.4375Z" fill="#D6A200"/>
  <path d="M21.7259 20.9195C21.7259 21.0003 21.6759 21.0715 21.6142 21.0784C21.5523 21.0854 21.5 21.0235 21.5 20.9409V20.1444C21.5 20.0618 21.5513 19.9938 21.6142 19.9922C21.6769 19.9909 21.7259 20.0559 21.7259 20.1371V20.9195Z" fill="#D6A200"/>
  <path d="M23.6653 19.4531C23.713 19.4545 23.7515 19.5164 23.7515 19.5907C23.7515 19.6651 23.713 19.7265 23.6653 19.7265C23.6177 19.7265 23.5781 19.6642 23.5781 19.5888C23.5781 19.5135 23.6175 19.4518 23.6653 19.4531Z" fill="#D6A200"/>
  <path d="M23.7422 20.724C23.7422 20.7915 23.7077 20.8503 23.6646 20.8549C23.6218 20.8596 23.5859 20.8079 23.5859 20.7394V20.0789C23.5859 20.0104 23.6214 19.9541 23.6646 19.9531C23.7079 19.9524 23.7422 20.0064 23.7422 20.0741V20.724Z" fill="#D6A200"/>
  <path d="M21.6113 21.3133C21.6798 21.3044 21.7353 21.3702 21.7353 21.4601C21.7353 21.5502 21.6804 21.6316 21.6113 21.6424C21.5422 21.653 21.4844 21.5872 21.4844 21.4956C21.4844 21.404 21.5417 21.322 21.6113 21.3133Z" fill="#D6A200"/>
  <path d="M22.7296 21.1646C22.7863 21.1575 22.832 21.2179 22.832 21.2997C22.832 21.3815 22.7863 21.455 22.7296 21.4648C22.673 21.4746 22.625 21.4133 22.625 21.33C22.625 21.2466 22.6721 21.1725 22.7296 21.1646Z" fill="#D6A200"/>
  <path d="M22.0388 21.251L22.408 21.2038C22.468 21.1961 22.5164 21.2587 22.5164 21.3413C22.5164 21.4239 22.468 21.5012 22.408 21.5107L22.0395 21.5678C21.9749 21.5778 21.9219 21.5141 21.9219 21.4258C21.9219 21.3374 21.9742 21.2593 22.0388 21.251Z" fill="#D6A200"/>
  <path d="M23.0363 21.126L23.3457 21.0865C23.3964 21.0797 23.4373 21.1372 23.4373 21.2146C23.4373 21.2919 23.3964 21.3608 23.3457 21.3687L23.0363 21.4169C22.9813 21.4252 22.9375 21.3662 22.9375 21.2854C22.9375 21.2045 22.9821 21.1332 23.0363 21.126Z" fill="#D6A200"/>
  <path d="M23.6653 21.0474C23.713 21.041 23.7515 21.0971 23.7515 21.172C23.7515 21.2468 23.713 21.3134 23.6653 21.3209C23.6177 21.3282 23.5781 21.2727 23.5781 21.1965C23.5781 21.1203 23.6175 21.0533 23.6653 21.0474Z" fill="#D6A200"/>
  <path d="M21.93 20.703C21.9402 20.6886 21.9524 20.6764 21.9669 20.6664C21.9935 20.6496 22.0118 20.6264 22.0218 20.5967C22.0272 20.5717 22.0211 20.5501 22.0035 20.5315C21.9996 20.5267 21.9962 20.5215 21.9933 20.5161C21.9933 20.5043 22.0062 20.4968 22.0255 20.486C22.0409 20.4798 22.0539 20.4702 22.0645 20.4575C22.0751 20.4447 22.0822 20.4303 22.0857 20.4141H22.0953C22.0984 20.4295 22.1054 20.443 22.1162 20.4546C22.127 20.4661 22.1399 20.4741 22.1551 20.4785C22.1738 20.4866 22.1852 20.4928 22.1864 20.5028C22.1839 20.5092 22.1806 20.5149 22.1765 20.5202C22.1596 20.5396 22.1536 20.562 22.1586 20.5873C22.168 20.6151 22.186 20.6351 22.2122 20.6479C22.2261 20.6554 22.2379 20.6652 22.2471 20.678C22.2703 20.7239 22.2753 20.7715 22.2626 20.8213C22.2508 20.8674 22.228 20.9069 22.1941 20.9401C22.1906 20.9438 22.1727 20.9563 22.1584 20.9677C22.1347 20.9835 22.1121 21.0007 22.0907 21.0192C22.0687 21.0051 22.0459 20.9928 22.0222 20.982C22.0095 20.9762 21.9973 20.9696 21.9854 20.9625C21.9489 20.9349 21.925 20.8988 21.9134 20.8546C21.8999 20.802 21.9055 20.7514 21.93 20.703Z" fill="#D6A200"/>
  <path d="M22.3817 20.6671C22.3908 20.6534 22.4022 20.6416 22.4157 20.6321C22.4407 20.6159 22.4577 20.5936 22.467 20.5654C22.472 20.5415 22.4664 20.5204 22.4502 20.5023C22.4465 20.4977 22.4432 20.4927 22.4405 20.4875C22.4405 20.4761 22.4527 20.4693 22.4704 20.4599C22.5007 20.4462 22.519 20.4232 22.5256 20.3906H22.5343C22.537 20.4053 22.5432 20.4182 22.553 20.4294C22.563 20.4406 22.575 20.4483 22.5893 20.4527C22.6066 20.4608 22.6169 20.4664 22.6182 20.4765C22.6159 20.4824 22.6128 20.488 22.6091 20.4932C22.5935 20.5122 22.5879 20.5336 22.5924 20.5577C22.601 20.5837 22.6176 20.6032 22.6421 20.6159C22.6552 20.6231 22.666 20.6329 22.6747 20.6451C22.6959 20.6892 22.7006 20.7351 22.689 20.7828C22.6784 20.8266 22.6572 20.8648 22.6253 20.897C22.6221 20.9005 22.6057 20.9126 22.5922 20.9225C22.5704 20.9377 22.5495 20.9541 22.5297 20.9718C22.5092 20.9583 22.4882 20.9462 22.466 20.9358C22.4527 20.9286 22.4353 20.9198 22.4321 20.9171C22.3981 20.8899 22.3761 20.8551 22.3657 20.8131C22.3535 20.7625 22.3589 20.7139 22.3817 20.6671Z" fill="#D6A200"/>
  <path d="M22.8086 20.6342C22.8171 20.6207 22.8275 20.6095 22.8403 20.6002C22.8636 20.5844 22.8794 20.563 22.8877 20.5362C22.8925 20.5132 22.8873 20.493 22.8719 20.4752C22.8686 20.4708 22.8657 20.4661 22.8632 20.4613C22.8632 20.4503 22.8742 20.4434 22.8906 20.4337C22.9195 20.4204 22.9367 20.3982 22.9423 20.3672H22.9506C22.9531 20.3811 22.9589 20.3934 22.968 20.4042C22.9772 20.4148 22.9884 20.4226 23.0019 20.4272C23.0181 20.4349 23.0279 20.4403 23.0293 20.4499C23.0272 20.4557 23.0245 20.4609 23.0208 20.466C23.0065 20.4845 23.0013 20.5051 23.0054 20.5281C23.0135 20.5526 23.0289 20.5709 23.0517 20.5832C23.0636 20.5902 23.0737 20.5994 23.082 20.6106C23.1016 20.6536 23.1061 20.698 23.0951 20.7439C23.0854 20.7858 23.0658 20.8226 23.0362 20.8539C23.0332 20.857 23.0177 20.8687 23.0054 20.8782C22.9849 20.8928 22.9656 20.9085 22.9471 20.9254C22.9282 20.9123 22.9087 20.9008 22.8881 20.8905C22.8773 20.8851 22.8667 20.879 22.8565 20.8724C22.825 20.8458 22.8044 20.8122 22.7949 20.7719C22.7839 20.7244 22.7884 20.6785 22.8086 20.6342Z" fill="#D6A200"/>
  <path d="M23.1987 20.6019C23.2064 20.5893 23.216 20.5785 23.2278 20.5696C23.2498 20.5542 23.2644 20.5336 23.2722 20.5077C23.2768 20.4859 23.272 20.4662 23.2575 20.4491C23.2544 20.4448 23.2517 20.4402 23.2494 20.4354C23.2494 20.425 23.2598 20.4184 23.2752 20.4078C23.3022 20.3949 23.3185 20.3735 23.3233 20.3438H23.331C23.3329 20.3571 23.3383 20.3688 23.3468 20.3792C23.3553 20.3897 23.3659 20.397 23.3786 20.4016C23.3937 20.4091 23.4031 20.4145 23.4039 20.4238C23.4018 20.4292 23.3991 20.4344 23.396 20.4392C23.3825 20.4572 23.3777 20.4772 23.3817 20.4992C23.3885 20.5233 23.4029 20.5417 23.4245 20.5542C23.4357 20.5613 23.445 20.5706 23.4521 20.5818C23.4705 20.6233 23.4747 20.6663 23.4645 20.7106C23.4556 20.7508 23.4373 20.7859 23.4095 20.8162C23.4066 20.8194 23.3923 20.8308 23.3819 20.8399C23.3628 20.854 23.3443 20.869 23.3269 20.885C23.3094 20.8725 23.2911 20.8613 23.272 20.8513C23.2617 20.8459 23.2519 20.8399 23.2424 20.8335C23.2129 20.8073 23.1938 20.7749 23.1852 20.7365C23.1747 20.69 23.1792 20.6453 23.1987 20.6019Z" fill="#D6A200"/>
  <path d="M22.2242 21.7473L23.1945 21.5791C23.3008 21.5606 23.3909 21.8171 23.4063 21.8642C23.3909 21.9172 23.3008 22.2106 23.1945 22.2357L22.2242 22.4637C22.0952 22.494 21.981 22.212 21.9609 22.1591C21.981 22.0978 22.0952 21.7695 22.2242 21.7473Z" fill="#D6A200"/>
  <path d="M21.6113 22.6902C21.6798 22.6738 21.7353 22.7334 21.7353 22.8231C21.7353 22.913 21.6804 23.001 21.6113 23.0195C21.5422 23.0378 21.4844 22.9788 21.4844 22.887C21.4844 22.7953 21.5417 22.707 21.6113 22.6902Z" fill="#D6A200"/>
  <path d="M22.078 22.7124L22.4443 22.6196C22.504 22.6046 22.5522 22.6607 22.5522 22.7442C22.5522 22.828 22.504 22.9094 22.4443 22.9265L22.078 23.0292C22.0138 23.0471 21.9609 22.99 21.9609 22.902C21.9609 22.8139 22.0138 22.7286 22.078 22.7124Z" fill="#D6A200"/>
  <path d="M23.0285 22.471L23.3386 22.3925C23.3892 22.3799 23.4299 22.4322 23.4299 22.5094C23.4299 22.5867 23.3892 22.6608 23.3386 22.6745L23.0285 22.7613C22.9735 22.7764 22.9297 22.7229 22.9297 22.6421C22.9297 22.5613 22.9742 22.486 23.0285 22.471Z" fill="#D6A200"/>
  <path d="M21.7259 22.3392C21.7259 22.4204 21.6759 22.4977 21.6142 22.5118C21.5523 22.5259 21.5 22.4705 21.5 22.388V21.9908C21.5 21.9082 21.5513 21.8324 21.6142 21.8216C21.6769 21.8108 21.7259 21.8687 21.7259 21.9495V22.3392Z" fill="#D6A200"/>
  <path d="M23.6653 22.1891C23.713 22.1775 23.7515 22.2292 23.7515 22.3041C23.7515 22.3789 23.713 22.4499 23.6653 22.4628C23.6177 22.4758 23.5781 22.4245 23.5781 22.3481C23.5781 22.2719 23.6175 22.2007 23.6653 22.1891Z" fill="#D6A200"/>
  <path d="M23.7422 21.9037C23.7422 21.9712 23.7077 22.0339 23.6646 22.0437C23.6218 22.0537 23.5859 22.0057 23.5859 21.9372V21.607C23.5859 21.5385 23.6214 21.4766 23.6646 21.4694C23.7079 21.4623 23.7422 21.5109 23.7422 21.5796V21.9037Z" fill="#D6A200"/>
  <path d="M22.2604 23.2123C22.4153 23.1658 22.538 23.3014 22.538 23.5149C22.538 23.7285 22.4153 23.9451 22.2604 24.002C22.1055 24.0589 21.9688 23.9283 21.9688 23.7053C21.9688 23.4825 22.1015 23.2601 22.2604 23.2123Z" fill="#D6A200"/>
  <path d="M23.1836 22.9368C23.3148 22.8975 23.4192 23.0252 23.4192 23.221C23.4192 23.4166 23.3148 23.6141 23.1836 23.6625C23.0525 23.7109 22.9375 23.5869 22.9375 23.3822C22.9375 23.1774 23.0492 22.9773 23.1836 22.9368Z" fill="#D6A200"/>
  <path d="M21.7181 23.759C21.7181 23.8402 21.6683 23.9241 21.6062 23.9444C21.5439 23.9649 21.4922 23.917 21.4922 23.8345V23.4363C21.4922 23.3537 21.5437 23.2712 21.6062 23.2534C21.6687 23.2359 21.7181 23.2874 21.7181 23.3686V23.759Z" fill="#D6A200"/>
  <path d="M23.7424 23.0838C23.7424 23.1511 23.7079 23.2181 23.6648 23.2327C23.622 23.2472 23.5859 23.2052 23.5859 23.1355V22.8053C23.5859 22.7368 23.6214 22.6708 23.6648 22.6583C23.7084 22.6459 23.7424 22.6911 23.7424 22.7586V23.0838Z" fill="#D6A200"/>
  <path d="M23.4996 24.5886L21.8281 25.3737V24.9347L23.4996 24.2109V24.5886Z" fill="#D6A200"/>
  <path d="M21.6113 25.1811C21.6798 25.1504 21.7353 25.1988 21.7353 25.2885C21.7353 25.3782 21.6804 25.4776 21.6113 25.5102C21.5422 25.5426 21.4844 25.4955 21.4844 25.4039C21.4844 25.3123 21.5417 25.2108 21.6113 25.1811Z" fill="#D6A200"/>
  <path d="M21.7259 24.7915C21.7259 24.8741 21.6759 24.9599 21.6142 24.9866C21.5523 25.0132 21.5 24.9684 21.5 24.8859V24.4879C21.5 24.4054 21.5513 24.3193 21.6142 24.2952C21.6769 24.2713 21.7259 24.3195 21.7259 24.4003V24.7915Z" fill="#D6A200"/>
  <path d="M23.6653 24.2632C23.713 24.2419 23.7515 24.2857 23.7515 24.3606C23.7515 24.4354 23.713 24.5145 23.6653 24.5371C23.6177 24.5597 23.5781 24.5164 23.5781 24.4402C23.5781 24.3639 23.6175 24.2848 23.6653 24.2632Z" fill="#D6A200"/>
  <path d="M23.7422 23.9454C23.7422 24.0128 23.7077 24.083 23.6646 24.1009C23.6218 24.1187 23.5859 24.0791 23.5859 24.0106V23.6804C23.5859 23.6119 23.6214 23.5429 23.6646 23.5269C23.7079 23.5108 23.7422 23.5527 23.7422 23.62V23.9454Z" fill="#D6A200"/>
  <path d="M22.1535 25.7458C22.1535 25.8243 22.1069 25.9125 22.049 25.9431L21.6453 26.1561C21.5828 26.1889 21.5312 26.1486 21.5312 26.066V25.9285C21.5312 25.8459 21.5828 25.7531 21.6453 25.7226L22.049 25.5243C22.1069 25.4968 22.1535 25.5367 22.1535 25.615V25.7458Z" fill="#D6A200"/>
  <path d="M23.7423 24.8992C23.7423 24.9669 23.7074 25.0404 23.6645 25.0628L23.3652 25.2198C23.3189 25.2437 23.2812 25.2059 23.2812 25.1349V25.0167C23.2812 24.9459 23.3189 24.8697 23.3652 24.8473L23.6645 24.7011C23.7074 24.6801 23.7423 24.7183 23.7423 24.786V24.8992Z" fill="#D6A200"/>
  <mask id="mask6_17_22206" style="mask-type:luminance" maskUnits="userSpaceOnUse" x="20" y="17" width="7" height="2">
    <path d="M20 17.2812H26.3312V18.5158H20V17.2812Z" fill="white"/>
  </mask>
  <g mask="url(#mask6_17_22206)">
    <path d="M26.3302 18.513L20.0391 17.4837V17.3203L26.3302 18.4241V18.513Z" fill="#BA9409"/>
  </g>
  <mask id="mask7_17_22206" style="mask-type:luminance" maskUnits="userSpaceOnUse" x="20" y="18" width="7" height="2">
    <path d="M20 18.2734H26.3312V19.0636H20V18.2734Z" fill="white"/>
  </mask>
  <g mask="url(#mask7_17_22206)">
    <path d="M26.3302 19.0465L20.0391 18.4603V18.2969L26.3302 18.9576V19.0465Z" fill="#BA9409"/>
  </g>
  <mask id="mask8_17_22206" style="mask-type:luminance" maskUnits="userSpaceOnUse" x="13" y="14" width="8" height="14">
    <path d="M13.6641 14.5547H20.0489V27.7769H13.6641V14.5547Z" fill="white"/>
  </mask>
  <g mask="url(#mask8_17_22206)">
    <path d="M20.0393 27.7655L13.6641 23.6479V16.5813L20.0393 14.5703V27.7655Z" fill="black"/>
  </g>
  <path d="M13.9844 19.4877L15.588 19.6244V19.0882L13.9844 19.0469V19.4877Z" fill="#EABD00"/>
  <path d="M15.4297 19.5603C15.4982 19.5659 15.5547 19.4756 15.5547 19.3595C15.5547 19.2434 15.4995 19.1467 15.4297 19.1446L14.0956 19.1016C14.047 19.1002 14.0078 19.1772 14.0078 19.2736C14.0078 19.3699 14.047 19.4511 14.0956 19.455L15.4297 19.5603Z" fill="#D6A200"/>
  <path d="M16.0156 19.6635L18.7847 19.8996V19.1727L16.0156 19.1016V19.6635Z" fill="#EABD00"/>
  <path d="M18.4966 19.7978C18.621 19.8076 18.7241 19.6876 18.7241 19.5302C18.7241 19.3728 18.621 19.2417 18.4966 19.2376L16.198 19.1641C16.1183 19.1616 16.0547 19.2592 16.0547 19.3823C16.0547 19.5054 16.1183 19.6099 16.198 19.6163L18.4966 19.7978Z" fill="#D6A200"/>
  <path d="M13.6875 18.5688L20.0623 18.2952V17.4922L13.6875 18.1452V18.5688Z" fill="#EABD00"/>
  <path d="M18.9466 19.4953C18.9742 19.455 19.0446 19.4449 19.0598 19.3959C19.0706 19.3618 19.0191 19.3357 19.0222 19.3068C19.0292 19.2433 19.1441 19.2711 19.1441 19.1797H19.1937C19.1937 19.2711 19.3116 19.2507 19.3185 19.3172C19.3218 19.3473 19.2682 19.3695 19.2796 19.4054C19.2954 19.4569 19.3702 19.4739 19.3992 19.5184C19.4167 19.5481 19.4277 19.58 19.4319 19.6141C19.4364 19.6482 19.4337 19.6818 19.4238 19.715C19.4057 19.7732 19.3712 19.8192 19.3199 19.8525C19.3023 19.8647 19.1688 19.9156 19.1688 19.9295C19.1688 19.9156 19.0379 19.8437 19.0211 19.8292C18.9734 19.7898 18.9408 19.7405 18.9235 19.681C18.9144 19.6498 18.9119 19.6182 18.9159 19.5857C18.92 19.5535 18.9302 19.5234 18.9466 19.4953Z" fill="#EABD00"/>
  <path d="M19.1675 19.8356C19.1855 19.8265 19.2088 19.8161 19.2395 19.8024C19.2518 19.7968 19.2779 19.7852 19.2829 19.7823C19.3192 19.7586 19.3439 19.7262 19.3574 19.6851C19.3699 19.643 19.3653 19.6027 19.3437 19.5645C19.3334 19.5549 19.3223 19.5464 19.3101 19.5393C19.2646 19.5146 19.2329 19.4779 19.2152 19.4291C19.2042 19.3946 19.2077 19.3616 19.226 19.3302C19.204 19.3199 19.1845 19.3062 19.1675 19.2891C19.1506 19.3051 19.1313 19.3172 19.1095 19.3257C19.1274 19.3573 19.1311 19.3903 19.1203 19.4251C19.1033 19.4708 19.0726 19.5034 19.0281 19.5232C19.0165 19.529 19.0057 19.5362 18.9959 19.5447C18.9754 19.5813 18.9712 19.6199 18.9833 19.66C18.9966 19.7026 19.0208 19.7379 19.0557 19.7659C19.0591 19.7684 19.0854 19.7842 19.0966 19.7908C19.1274 19.8103 19.15 19.824 19.1675 19.8356Z" fill="#D6A200"/>
  <path d="M15.674 19.3268C15.6887 19.2971 15.7268 19.289 15.7351 19.2531C15.7409 19.2276 15.7133 19.2089 15.7151 19.1875C15.7187 19.141 15.7805 19.1599 15.7805 19.0938H15.8065C15.8065 19.1605 15.8694 19.1449 15.8733 19.1925C15.875 19.2145 15.8457 19.2313 15.8524 19.2571C15.8609 19.2946 15.9005 19.3063 15.9159 19.3397C15.9354 19.386 15.9398 19.4334 15.9292 19.4824C15.9213 19.5222 15.903 19.5561 15.874 19.5843C15.8648 19.5938 15.7934 19.6327 15.7934 19.6431C15.7934 19.6327 15.723 19.5824 15.7139 19.572C15.6997 19.5554 15.6879 19.5372 15.6786 19.5174C15.6694 19.4975 15.663 19.4769 15.6593 19.4551C15.6559 19.4334 15.6553 19.4118 15.6578 19.39C15.6603 19.3682 15.6655 19.3472 15.6738 19.327L15.674 19.3268Z" fill="#EABD00"/>
  <path d="M15.7981 19.5778C15.8077 19.5707 15.8201 19.5628 15.8363 19.5524C15.8432 19.5481 15.8569 19.5394 15.8596 19.5371C15.8799 19.5171 15.8932 19.4932 15.8994 19.4654C15.9059 19.4359 15.904 19.4071 15.8932 19.379C15.8882 19.3722 15.8822 19.3662 15.8756 19.3608C15.8494 19.3404 15.8324 19.3141 15.8247 19.2817C15.8189 19.257 15.8209 19.2329 15.8305 19.2094C15.8184 19.2015 15.8079 19.1916 15.7995 19.1797C15.791 19.1911 15.7807 19.2003 15.7684 19.2073C15.7777 19.2308 15.7796 19.2551 15.7742 19.2798C15.7663 19.3103 15.7493 19.3342 15.7231 19.3514C15.7165 19.356 15.7109 19.3614 15.7059 19.3676C15.6949 19.3952 15.6924 19.4235 15.6988 19.4524C15.7051 19.4814 15.718 19.507 15.7379 19.5292C15.7398 19.5312 15.7537 19.5421 15.7599 19.5468C15.7763 19.5597 15.7886 19.5697 15.7981 19.5778Z" fill="#D6A200"/>
  <path d="M13.7693 19.2319C13.7783 19.2081 13.8024 19.2016 13.8077 19.1728C13.8111 19.1528 13.7938 19.1383 13.7949 19.1215C13.797 19.0845 13.8356 19.0997 13.8356 19.0469H13.8518C13.8518 19.0997 13.891 19.0868 13.8935 19.1244C13.8935 19.1416 13.8767 19.1551 13.8806 19.1753C13.8858 19.2049 13.9103 19.2139 13.9199 19.239C13.9317 19.2757 13.9344 19.3131 13.928 19.3513C13.9238 19.3816 13.9124 19.4091 13.8937 19.4334C13.8879 19.4406 13.8435 19.4726 13.8435 19.4809C13.8435 19.4726 13.7999 19.4338 13.7942 19.4257C13.7768 19.4001 13.7658 19.3719 13.7612 19.3412C13.7548 19.3042 13.7575 19.2676 13.7693 19.2319Z" fill="#EABD00"/>
  <path d="M13.8452 19.4244C13.8513 19.4186 13.8591 19.4124 13.8693 19.4037C13.8733 19.4005 13.8818 19.3933 13.8836 19.3914C13.8965 19.3746 13.9048 19.3555 13.9081 19.3345C13.9121 19.3111 13.9108 19.288 13.9036 19.2654C13.9003 19.2604 13.8967 19.2556 13.8926 19.2514C13.8755 19.2342 13.865 19.2137 13.8612 19.1896C13.8575 19.1703 13.8589 19.1512 13.8648 19.1325C13.8567 19.126 13.8502 19.1184 13.8452 19.1094C13.8402 19.1179 13.8338 19.125 13.8261 19.1312C13.8319 19.1499 13.833 19.169 13.8295 19.1883C13.8261 19.2112 13.8157 19.2305 13.7985 19.2461C13.7944 19.25 13.791 19.2544 13.7877 19.2591C13.7811 19.2807 13.7796 19.3027 13.7831 19.325C13.7867 19.3474 13.7948 19.3679 13.8077 19.3864C13.8077 19.3864 13.8178 19.3966 13.8216 19.4003C13.8319 19.4105 13.8394 19.4178 13.8452 19.4244Z" fill="#D6A200"/>
  <path d="M14.6734 18.2907C14.6734 18.1717 14.6213 18.0802 14.5584 18.0862L13.843 18.1557C13.7913 18.1607 13.75 18.25 13.75 18.3557C13.75 18.461 13.7913 18.5449 13.843 18.5428L14.5584 18.5114C14.6213 18.5087 14.6734 18.4099 14.6734 18.2907Z" fill="#EABD00"/>
  <path d="M14.5601 18.4581C14.6081 18.4557 14.6479 18.3799 14.6479 18.2893C14.6479 18.1988 14.6081 18.1286 14.5601 18.133L13.8446 18.1976C13.8051 18.2013 13.7734 18.27 13.7734 18.3506C13.7734 18.4312 13.8051 18.4957 13.8446 18.4937L14.5601 18.4581Z" fill="#D6A200"/>
  <path d="M15.8784 18.2024C15.8784 18.0647 15.8097 17.9609 15.7266 17.9692L14.7985 18.0593C14.7325 18.0657 14.6797 18.1673 14.6797 18.2865C14.6797 18.4059 14.7325 18.5003 14.7985 18.4974L15.7266 18.4569C15.8097 18.4534 15.8784 18.3392 15.8784 18.2024Z" fill="#EABD00"/>
  <path d="M15.7216 18.4044C15.7849 18.4015 15.8372 18.314 15.8372 18.21C15.8372 18.106 15.7849 18.0258 15.7216 18.0315L14.7944 18.1158C14.7438 18.1205 14.7031 18.1984 14.7031 18.2896C14.7031 18.3811 14.7438 18.4534 14.7944 18.4507L15.7216 18.4044Z" fill="#D6A200"/>
  <path d="M17.5178 18.092C17.5178 17.9313 17.4233 17.81 17.3087 17.821L16.0558 17.9427C15.9685 17.9512 15.8984 18.0689 15.8984 18.206C15.8984 18.3436 15.9685 18.4512 16.0558 18.4475L17.3087 18.3926C17.4233 18.3876 17.5178 18.2519 17.5178 18.092Z" fill="#EABD00"/>
  <path d="M17.3033 18.3202C17.3907 18.3158 17.4627 18.213 17.4627 18.0905C17.4627 17.968 17.3907 17.8752 17.3033 17.8833L16.0504 17.9969C15.9833 18.0029 15.9297 18.0932 15.9297 18.1983C15.9297 18.3034 15.9847 18.3862 16.0504 18.3829L17.3033 18.3202Z" fill="#D6A200"/>
  <path d="M19.8409 17.9263C19.8409 17.7313 19.7018 17.5866 19.5345 17.6028L17.7494 17.7758C17.6279 17.7876 17.5312 17.9278 17.5312 18.0891C17.5312 18.25 17.6279 18.3765 17.7494 18.3713L19.5345 18.2932C19.7018 18.2861 19.8409 18.1217 19.8409 17.9263Z" fill="#EABD00"/>
  <path d="M19.5385 18.2085C19.6658 18.2021 19.7715 18.0764 19.7715 17.9282C19.7715 17.7799 19.6658 17.6689 19.5385 17.6805L17.7534 17.8422C17.6604 17.8508 17.5859 17.9581 17.5859 18.0819C17.5859 18.2058 17.6604 18.302 17.7534 18.2976L19.5385 18.2085Z" fill="#D6A200"/>
  <path d="M19.8111 20.7478C19.8419 20.7075 19.9229 20.7044 19.9407 20.6533C19.953 20.6178 19.8942 20.584 19.8977 20.5533C19.9054 20.4856 20.0371 20.5277 20.0371 20.4297L20.0647 20.433V20.4837C20.0454 20.5259 20.0013 20.5387 19.9723 20.547C19.9602 20.5503 19.9486 20.5549 19.9376 20.5607C19.9403 20.5643 19.9434 20.5688 19.9461 20.572C19.9619 20.5923 19.9912 20.6303 19.9762 20.6735C19.9609 20.7167 19.9226 20.7341 19.8886 20.7491C19.8705 20.7555 19.8543 20.7653 19.8402 20.7785C19.8249 20.8022 19.8155 20.8282 19.8118 20.8562C19.8082 20.8844 19.8109 20.9119 19.8195 20.9388C19.8381 20.9968 19.8707 21.0454 19.917 21.0846C19.9226 21.0894 19.9484 21.1064 19.9692 21.1205C20.0144 21.1504 20.0449 21.171 20.0655 21.1876V21.241C20.0655 21.2256 19.9158 21.1336 19.8967 21.1162C19.8431 21.0703 19.8058 21.0138 19.7846 20.9465C19.7738 20.9131 19.7709 20.879 19.7756 20.8442C19.7802 20.8093 19.792 20.7773 19.8111 20.7478Z" fill="#BA9409"/>
  <path d="M19.9808 21.0797C19.9679 21.071 19.9382 21.0521 19.9341 21.048C19.895 21.015 19.8676 20.9745 19.8515 20.9261C19.8375 20.8829 19.8425 20.842 19.8664 20.8032C19.8778 20.7951 19.8899 20.7886 19.9029 20.7838C19.9409 20.7668 19.9883 20.7456 20.0086 20.6881C20.0205 20.6501 20.0165 20.614 19.9962 20.5799C20.0205 20.5735 20.0427 20.5623 20.0626 20.5469V21.1346C20.0419 21.1204 20.0169 21.103 19.9808 21.0797Z" fill="#BA9409"/>
  <path d="M19.8102 22.0385C19.8411 22.0013 19.9221 22.0063 19.9399 21.9559C19.9522 21.9218 19.8934 21.8826 19.8968 21.8521C19.9046 21.7858 20.0363 21.8406 20.0363 21.7422L20.0639 21.7482V21.801C20.0446 21.8415 20.0004 21.8496 19.9715 21.856C19.9592 21.8577 19.9474 21.861 19.936 21.8656L19.9445 21.8774C19.9601 21.8992 19.9896 21.9399 19.9744 21.9816C19.9593 22.0231 19.9208 22.0366 19.887 22.0483C19.8691 22.0528 19.8529 22.0609 19.8386 22.0726C19.8232 22.0958 19.8135 22.1212 19.8098 22.149C19.8064 22.1768 19.8089 22.2038 19.8179 22.2302C19.837 22.2902 19.8695 22.3417 19.9154 22.3847C19.9208 22.3899 19.9466 22.4094 19.9673 22.4254C20.0128 22.4596 20.0433 22.4831 20.0639 22.5016V22.5547C20.0639 22.5393 19.9142 22.4335 19.8949 22.4144C19.8421 22.3641 19.8046 22.3041 19.783 22.2345C19.7649 22.1639 19.7717 22.0861 19.8102 22.0385Z" fill="#BA9409"/>
  <path d="M19.9805 22.3898C19.9676 22.3801 19.9379 22.3575 19.9338 22.3539C19.895 22.318 19.8676 22.2748 19.8513 22.2246C19.8443 22.2044 19.8422 22.1837 19.8449 22.1627C19.8474 22.1415 19.8545 22.122 19.8661 22.1041C19.8775 22.0969 19.8896 22.0917 19.9026 22.0881C19.9406 22.0749 19.988 22.0587 20.0081 22.0034C20.02 21.9654 20.016 21.9291 19.9959 21.8946C20.02 21.8903 20.0422 21.8811 20.0623 21.8672V22.4513C20.0416 22.4362 20.0166 22.4164 19.9805 22.3898Z" fill="#BA9409"/>
  <path d="M19.8102 23.3274C19.8411 23.2929 19.9221 23.3058 19.9399 23.2586C19.9522 23.2256 19.8934 23.1807 19.8968 23.1504C19.9046 23.0846 20.0363 23.1523 20.0363 23.0547L20.0639 23.0634V23.1141C20.0446 23.1523 20.0004 23.1565 19.9715 23.1589C19.9593 23.1594 19.9476 23.1614 19.936 23.165C19.9387 23.1691 19.9418 23.1741 19.9445 23.1776C19.9601 23.2011 19.9896 23.2445 19.9744 23.2846C19.9593 23.3249 19.9208 23.3342 19.887 23.3431C19.8693 23.3456 19.8531 23.3521 19.8386 23.3626C19.8095 23.3948 19.8012 23.4559 19.8179 23.518C19.837 23.5809 19.8696 23.6359 19.9154 23.6832C19.9208 23.6889 19.9466 23.7107 19.9673 23.7289C20.0128 23.7677 20.0433 23.7941 20.0639 23.8145V23.8676C20.0639 23.8523 19.9142 23.732 19.8949 23.7107C19.8424 23.6562 19.805 23.5925 19.783 23.52C19.7649 23.4482 19.7717 23.371 19.8102 23.3274Z" fill="#BA9409"/>
  <path d="M19.9797 23.6938C19.9667 23.683 19.937 23.6575 19.933 23.6536C19.8946 23.6143 19.867 23.5684 19.8504 23.5159C19.8377 23.4685 19.8435 23.4204 19.8653 23.3969C19.8768 23.3909 19.889 23.3867 19.9017 23.3845C19.9397 23.3751 19.9872 23.3633 20.0072 23.3099C20.019 23.2715 20.015 23.2347 19.9951 23.1997C20.0188 23.1982 20.0408 23.1915 20.0615 23.1797V23.7642C20.0408 23.7462 20.0157 23.7246 19.9797 23.6938Z" fill="#BA9409"/>
  <path d="M19.81 24.6168C19.8409 24.5857 19.9219 24.6064 19.9397 24.5616C19.952 24.5298 19.8932 24.4791 19.8966 24.4497C19.9044 24.3845 20.0361 24.4648 20.0361 24.3672L20.0637 24.3788V24.4293C20.0444 24.466 20.0002 24.4654 19.9713 24.4654C19.9595 24.4646 19.9479 24.4654 19.9366 24.4677C19.9393 24.4719 19.9424 24.4771 19.9451 24.481C19.9609 24.5059 19.9902 24.5524 19.9751 24.5911C19.9599 24.6299 19.9215 24.6355 19.8876 24.6407C19.8702 24.6415 19.854 24.6465 19.8392 24.6558C19.81 24.6853 19.8017 24.7455 19.8185 24.8093C19.8384 24.8743 19.8708 24.932 19.9159 24.9827C19.9215 24.9891 19.9474 25.0136 19.968 25.0335C20.0133 25.0767 20.0438 25.106 20.0645 25.1284V25.1814C20.0645 25.1664 19.9148 25.0312 19.8957 25.0084C19.8434 24.9494 19.8062 24.882 19.7836 24.8066C19.7647 24.7335 19.7714 24.6567 19.81 24.6168Z" fill="#BA9409"/>
  <path d="M19.9797 25.0046C19.9667 24.9927 19.937 24.9643 19.933 24.9599C19.8948 24.9174 19.8674 24.869 19.8504 24.8146C19.8377 24.7658 19.8435 24.7186 19.8653 24.6968C19.877 24.6919 19.8892 24.689 19.9017 24.6881C19.9397 24.6823 19.9872 24.675 20.0072 24.6236C20.0184 24.5853 20.0144 24.5486 19.9951 24.5135C20.0182 24.5143 20.0404 24.5098 20.0615 24.5V25.0843C20.0408 25.0631 20.0157 25.0384 19.9797 25.0046Z" fill="#BA9409"/>
  <path d="M20.288 25.9316C20.2604 25.9002 20.1889 25.921 20.1732 25.8751C20.1622 25.8433 20.2141 25.7925 20.2112 25.7622C20.2043 25.6969 20.088 25.7783 20.088 25.6797L20.0629 25.6913V25.7422C20.0802 25.7788 20.1179 25.7785 20.1454 25.7781C20.1561 25.7773 20.1665 25.7783 20.1767 25.7808C20.1746 25.7852 20.1715 25.79 20.1694 25.7943C20.1557 25.8193 20.1294 25.866 20.1418 25.9042C20.1541 25.9426 20.1892 25.9488 20.2191 25.9542C20.2348 25.9548 20.249 25.9598 20.2618 25.969C20.2876 25.9987 20.2948 26.0591 20.2803 26.1236C20.2633 26.1876 20.2346 26.2459 20.1941 26.2981C20.1892 26.3045 20.1667 26.3292 20.148 26.3492C20.108 26.3925 20.081 26.4222 20.0625 26.4447V26.4982C20.0625 26.4827 20.1952 26.3471 20.212 26.324C20.2587 26.263 20.2917 26.1953 20.311 26.1209C20.3277 26.0487 20.3225 25.9714 20.288 25.9316Z" fill="#EABD00"/>
  <path d="M19.8971 25.7491C19.8937 25.7785 19.9523 25.8348 19.9402 25.8655C19.9224 25.9094 19.8414 25.8807 19.8105 25.909C19.7712 25.9451 19.7652 26.0211 19.7829 26.0958C19.8059 26.1741 19.8433 26.2447 19.895 26.3078C19.9143 26.3329 20.064 26.4823 20.064 26.4974V26.4443C20.0434 26.42 20.0127 26.3876 19.9674 26.34C19.9467 26.3184 19.9209 26.291 19.9153 26.285C19.8705 26.2306 19.8381 26.1697 19.818 26.1019C19.8013 26.0366 19.8094 25.9771 19.8385 25.9503C19.8537 25.9426 19.8699 25.9391 19.8871 25.9403C19.9209 25.9384 19.9596 25.9361 19.9745 25.899C19.9893 25.8618 19.9602 25.8126 19.9446 25.7862C19.9417 25.7819 19.9388 25.7765 19.9359 25.7717C19.9479 25.7702 19.9596 25.7702 19.9714 25.7717C20.0003 25.7748 20.0447 25.7794 20.064 25.7443V25.6936L20.0364 25.6797C20.0366 25.7779 19.9049 25.6849 19.8971 25.7491Z" fill="#BA9409"/>
  <path d="M20.2361 26.0108C20.2259 26.006 20.2151 26.0029 20.2037 26.0021C20.1701 25.9963 20.1283 25.9892 20.1103 25.9373C20.1005 25.8989 20.1042 25.8619 20.1211 25.826C20.1003 25.8268 20.0808 25.8223 20.0625 25.8125V26.3997C20.0804 26.3792 20.1032 26.3546 20.1343 26.3208C20.1458 26.3086 20.1723 26.2799 20.1759 26.2757C20.2101 26.2317 20.2346 26.1829 20.249 26.1292C20.2589 26.0814 20.2537 26.0338 20.2361 26.0108Z" fill="#EABD00"/>
  <path d="M19.9951 25.8196C20.0144 25.8553 20.0186 25.8926 20.0074 25.9315C19.9872 25.9811 19.9397 25.9836 19.9019 25.9867C19.8894 25.9863 19.8772 25.988 19.8653 25.9919C19.8435 26.0114 19.8377 26.0583 19.8504 26.1082C19.8678 26.1649 19.8952 26.2159 19.933 26.2616C19.937 26.2662 19.9667 26.2976 19.9797 26.3111C20.015 26.348 20.0408 26.3752 20.0609 26.3974V25.8125C20.0395 25.8202 20.0177 25.8225 19.9951 25.8196Z" fill="#BA9409"/>
  <path d="M19.7109 19.1875L20.0638 19.1966V19.2353C19.8855 19.2301 19.7441 19.3856 19.7441 19.5824C19.7441 19.7791 19.8855 19.9502 20.0638 19.9651V20.0039L19.7109 19.9736V19.1875Z" fill="#EABD00"/>
  <path d="M19.7812 19.5821C19.7812 19.4114 19.9045 19.2766 20.0592 19.2814V19.5186C20.0494 19.5186 20.0401 19.5206 20.0313 19.5244C20.0222 19.5283 20.0145 19.5339 20.0077 19.541C20.0012 19.5482 19.9961 19.5563 19.9929 19.5653C19.9896 19.5746 19.9882 19.584 19.9888 19.5937C19.9884 19.6037 19.99 19.6136 19.9932 19.623C19.9967 19.6325 20.0015 19.6409 20.0081 19.6487C20.0147 19.6562 20.0222 19.6624 20.0311 19.6672C20.0399 19.672 20.0492 19.6751 20.0592 19.6762V19.9135C19.9039 19.9017 19.7812 19.7528 19.7812 19.5821Z" fill="#D6A200"/>
  <path d="M13.6875 18.1495L20.0623 17.4915V17.3281L13.6875 18.064V18.1495Z" fill="#BA9409"/>
  <path d="M13.6875 18.6562L20.0623 18.4595V18.2969L13.6875 18.5704V18.6562Z" fill="#BA9409"/>
  <mask id="mask9_17_22206" style="mask-type:luminance" maskUnits="userSpaceOnUse" x="13" y="14" width="14" height="4">
    <path d="M13.6641 14.5547H26.3307V17.1843H13.6641V14.5547Z" fill="white"/>
  </mask>
  <g mask="url(#mask9_17_22206)">
    <path d="M26.3303 17.1581L20.0393 14.7954L13.6641 16.8064V16.5813L20.0393 14.5703L26.3303 16.9334V17.1581Z" fill="#613A2B"/>
  </g>
  <mask id="mask10_17_22206" style="mask-type:luminance" maskUnits="userSpaceOnUse" x="13" y="23" width="14" height="5">
    <path d="M13.6641 23.4062H26.3307V27.7766H13.6641V23.4062Z" fill="white"/>
  </mask>
  <g mask="url(#mask10_17_22206)">
    <path d="M26.3303 24.1408L20.0393 27.7645L13.6641 23.6468V23.4219L20.0393 27.5394L26.3303 23.9157V24.1408Z" fill="#613A2B"/>
  </g>
</svg>