<svg xmlns="http://www.w3.org/2000/svg" width="150" height="150" viewBox="0 0 150 150" fill="none">
  <g filter="url(#filter0_d_1_9660)">
    <rect x="15" y="11" width="120" height="120" rx="20" fill="white"/>
    <path d="M83.1818 62.1364V55.1818C85.4318 54.2273 87.733 53.5114 90.0852 53.0341C92.4375 52.5568 94.9091 52.3182 97.5 52.3182C99.2727 52.3182 101.011 52.4545 102.716 52.7273C104.42 53 106.091 53.3409 107.727 53.75V60.2955C106.091 59.6818 104.438 59.2216 102.767 58.9148C101.097 58.608 99.3409 58.4545 97.5 58.4545C94.9091 58.4545 92.4205 58.7784 90.0341 59.4261C87.6477 60.0739 85.3636 60.9773 83.1818 62.1364ZM83.1818 84.6364V77.6818C85.4318 76.7273 87.733 76.0114 90.0852 75.5341C92.4375 75.0568 94.9091 74.8182 97.5 74.8182C99.2727 74.8182 101.011 74.9545 102.716 75.2273C104.42 75.5 106.091 75.8409 107.727 76.25V82.7955C106.091 82.1818 104.438 81.7216 102.767 81.4148C101.097 81.108 99.3409 80.9545 97.5 80.9545C94.9091 80.9545 92.4205 81.2614 90.0341 81.875C87.6477 82.4886 85.3636 83.4091 83.1818 84.6364ZM83.1818 73.3864V66.4318C85.4318 65.4773 87.733 64.7614 90.0852 64.2841C92.4375 63.8068 94.9091 63.5682 97.5 63.5682C99.2727 63.5682 101.011 63.7045 102.716 63.9773C104.42 64.25 106.091 64.5909 107.727 65V71.5455C106.091 70.9318 104.438 70.4716 102.767 70.1648C101.097 69.858 99.3409 69.7045 97.5 69.7045C94.9091 69.7045 92.4205 70.0284 90.0341 70.6761C87.6477 71.3239 85.3636 72.2273 83.1818 73.3864ZM52.5 87.0909C55.7045 87.0909 58.8239 87.4489 61.858 88.1648C64.892 88.8807 67.9091 89.9545 70.9091 91.3864V51.0909C68.1136 49.4545 65.1477 48.2273 62.0114 47.4091C58.875 46.5909 55.7045 46.1818 52.5 46.1818C50.0455 46.1818 47.608 46.4205 45.1875 46.8977C42.767 47.375 40.4318 48.0909 38.1818 49.0455V89.5455C40.5682 88.7273 42.9375 88.1136 45.2898 87.7045C47.642 87.2955 50.0455 87.0909 52.5 87.0909ZM79.0909 91.3864C82.0909 89.9545 85.108 88.8807 88.142 88.1648C91.1761 87.4489 94.2955 87.0909 97.5 87.0909C99.9545 87.0909 102.358 87.2955 104.71 87.7045C107.062 88.1136 109.432 88.7273 111.818 89.5455V49.0455C109.568 48.0909 107.233 47.375 104.812 46.8977C102.392 46.4205 99.9545 46.1818 97.5 46.1818C94.2955 46.1818 91.125 46.5909 87.9886 47.4091C84.8523 48.2273 81.8864 49.4545 79.0909 51.0909V91.3864ZM75 103.455C71.7273 100.864 68.1818 98.8523 64.3636 97.4205C60.5455 95.9886 56.5909 95.2727 52.5 95.2727C49.6364 95.2727 46.8239 95.6477 44.0625 96.3977C41.3011 97.1477 38.6591 98.2045 36.1364 99.5682C34.7045 100.318 33.3239 100.284 31.9943 99.4659C30.6648 98.6477 30 97.4545 30 95.8864V46.5909C30 45.8409 30.1875 45.125 30.5625 44.4432C30.9375 43.7614 31.5 43.25 32.25 42.9091C35.3864 41.2727 38.6591 40.0455 42.0682 39.2273C45.4773 38.4091 48.9545 38 52.5 38C56.4545 38 60.3239 38.5114 64.108 39.5341C67.892 40.5568 71.5227 42.0909 75 44.1364C78.4773 42.0909 82.108 40.5568 85.892 39.5341C89.6761 38.5114 93.5455 38 97.5 38C101.045 38 104.523 38.4091 107.932 39.2273C111.341 40.0455 114.614 41.2727 117.75 42.9091C118.5 43.25 119.062 43.7614 119.438 44.4432C119.812 45.125 120 45.8409 120 46.5909V95.8864C120 97.4545 119.335 98.6477 118.006 99.4659C116.676 100.284 115.295 100.318 113.864 99.5682C111.341 98.2045 108.699 97.1477 105.938 96.3977C103.176 95.6477 100.364 95.2727 97.5 95.2727C93.4091 95.2727 89.4545 95.9886 85.6364 97.4205C81.8182 98.8523 78.2727 100.864 75 103.455Z" fill="#1E5B50"/>
  </g>
  <defs>
    <filter id="filter0_d_1_9660" x="0" y="0" width="150" height="150" filterUnits="userSpaceOnUse" color-interpolation-filters="sRGB">
      <feFlood flood-opacity="0" result="BackgroundImageFix"/>
      <feColorMatrix in="SourceAlpha" type="matrix" values="0 0 0 0 0 0 0 0 0 0 0 0 0 0 0 0 0 0 127 0" result="hardAlpha"/>
      <feOffset dy="4"/>
      <feGaussianBlur stdDeviation="7.5"/>
      <feComposite in2="hardAlpha" operator="out"/>
      <feColorMatrix type="matrix" values="0 0 0 0 0 0 0 0 0 0 0 0 0 0 0 0 0 0 0.1 0"/>
      <feBlend mode="normal" in2="BackgroundImageFix" result="effect1_dropShadow_1_9660"/>
      <feBlend mode="normal" in="SourceGraphic" in2="effect1_dropShadow_1_9660" result="shape"/>
    </filter>
  </defs>
</svg>