<svg xmlns="http://www.w3.org/2000/svg" width="90" height="90" viewBox="0 0 90 90" fill="none">
    <mask id="mask0_1_5875" style="mask-type:luminance" maskUnits="userSpaceOnUse" x="0" y="5" width="90" height="83">
      <path d="M0.0957031 5.6665H89.9047V87.9165H0.0957031V5.6665Z" fill="white"/>
    </mask>
    <g mask="url(#mask0_1_5875)">
      <path d="M82.5377 75.8002C82.5377 78.4456 80.3688 80.6132 77.7221 80.6132H28.2247C25.578 80.6132 23.4014 78.4456 23.4014 75.8002V73.2503H59.7746C66.1049 73.2503 72.4279 68.3423 74.0385 62.0155L82.4422 30.677V75.8002H82.5377ZM10.3654 65.8879C9.60754 65.8879 8.667 65.6969 8.10103 64.94C7.53463 64.2785 7.43914 63.2425 7.81371 62.0155L17.4535 25.9521H76.2069L67.0459 60.1271C66.2009 63.147 62.8918 65.8879 59.8623 65.8879H10.3654ZM77.7221 5.75293H73.7512L72.6193 9.90441C71.5828 13.6809 67.9947 16.5099 64.2074 16.5099C62.1345 16.5099 60.1492 15.6653 59.0173 14.0554C57.7894 12.4539 57.4144 10.2785 57.9726 8.20692L58.6345 5.75293H45.7898L44.6575 9.90441C43.621 13.6809 40.0251 16.5099 36.1583 16.5099C34.0772 16.5099 32.1874 15.6653 30.9595 14.0554C29.7317 12.4539 29.3571 10.2785 29.9231 8.20692L30.585 5.75293H26.4231C20.1002 5.75293 13.7699 10.6613 12.1592 16.9877L0.542439 60.1271C-0.406346 63.5294 0.159626 66.9239 2.14487 69.3779C4.03463 71.8324 6.96084 73.2503 10.2694 73.2503H16.0342V75.8002C16.0342 82.5016 21.5116 87.9756 28.2169 87.9756H77.7221C84.4274 87.9756 89.9049 82.5016 89.9049 75.8002V17.9283C89.9049 11.2269 84.4274 5.75293 77.7221 5.75293Z" fill="#19473E"/>
    </g>
    <path d="M36.2534 13.1155C38.5177 13.1155 40.782 11.3225 41.3484 9.05165L42.6718 4.05556C43.2378 1.78472 41.9144 -0.0078125 39.7456 -0.0078125C37.4812 -0.0078125 35.2091 1.78472 34.6427 4.05556L33.3194 9.05165C32.7534 11.227 34.0767 13.1155 36.2534 13.1155Z" fill="#19473E"/>
    <path d="M64.2069 13.1155C66.4795 13.1155 68.7438 11.3225 69.3098 9.05165L70.6336 4.05556C71.1996 1.78472 69.8758 -0.0078125 67.7074 -0.0078125C65.443 -0.0078125 63.1705 1.78472 62.6045 4.05556L61.1852 9.05165C60.6193 11.227 61.9426 13.1155 64.2069 13.1155Z" fill="#19473E"/>
    <path d="M48.7234 37.7528L38.2308 46.0635L36.341 43.514C35.1132 41.9042 32.8489 41.5297 31.1505 42.7571C29.5403 43.9841 29.1653 46.2471 30.3931 47.952L34.5472 53.5219C35.1132 54.3665 36.062 54.8443 37.0029 55.0279H37.4812C38.3263 55.0279 39.0837 54.7489 39.7456 54.2788L53.2521 43.6095C54.8627 42.3825 55.1418 40.024 53.818 38.4142C52.5902 36.7172 50.3259 36.4303 48.7234 37.7528Z" fill="#19473E"/>
    <mask id="mask1_1_5875" style="mask-type:luminance" maskUnits="userSpaceOnUse" x="24" y="33" width="36" height="25">
      <path d="M24.1621 33.2847H59.7871V57.4513H24.1621V33.2847Z" fill="white"/>
    </mask>
    <g mask="url(#mask1_1_5875)">
      <path d="M82.5372 75.8002C82.5372 78.4456 80.3683 80.6132 77.7216 80.6132H28.2242C25.5775 80.6132 23.4009 78.4456 23.4009 75.8002V73.2503H59.7742C66.1045 73.2503 72.4274 68.3423 74.038 62.0155L82.4417 30.677V75.8002H82.5372ZM10.3649 65.8879C9.60705 65.8879 8.66652 65.6969 8.10054 64.94C7.53414 64.2785 7.43865 63.2425 7.81322 62.0155L17.453 25.9521H76.2065L67.0454 60.1271C66.2004 63.147 62.8913 65.8879 59.8618 65.8879H10.3649ZM77.7216 5.75293H73.7507L72.6188 9.90441C71.5823 13.6809 67.9942 16.5099 64.2069 16.5099C62.134 16.5099 60.1487 15.6653 59.0168 14.0554C57.7889 12.4539 57.4139 10.2785 57.9721 8.20692L58.634 5.75293H45.7893L44.657 9.90441C43.6205 13.6809 40.0246 16.5099 36.1578 16.5099C34.0767 16.5099 32.1869 15.6653 30.9591 14.0554C29.7312 12.4539 29.3566 10.2785 29.9226 8.20692L30.5845 5.75293H26.4226C20.0997 5.75293 13.7694 10.6613 12.1587 16.9877L0.54195 60.1271C-0.406834 63.5294 0.159138 66.9239 2.14438 69.3779C4.03414 71.8324 6.96035 73.2503 10.2689 73.2503H16.0337V75.8002C16.0337 82.5016 21.5111 87.9756 28.2164 87.9756H77.7216C84.4269 87.9756 89.9044 82.5016 89.9044 75.8002V17.9283C89.9044 11.2269 84.4269 5.75293 77.7216 5.75293Z" fill="#E09F00"/>
    </g>
    <path d="M48.7234 37.7528L38.2308 46.0635L36.341 43.514C35.1132 41.9042 32.8489 41.5297 31.1505 42.7571C29.5403 43.9841 29.1653 46.2471 30.3931 47.952L34.5472 53.5219C35.1132 54.3665 36.062 54.8443 37.0029 55.0279H37.4812C38.3263 55.0279 39.0837 54.7489 39.7456 54.2788L53.2521 43.6095C54.8627 42.3825 55.1418 40.024 53.818 38.4142C52.5902 36.7172 50.3259 36.4303 48.7234 37.7528Z" fill="#E09F00"/>
  
</svg>