<svg xmlns="http://www.w3.org/2000/svg" width="90" height="90" viewBox="0 0 90 90" fill="none">
  <g filter="url(#filter0_d_17_22122)">
    <path d="M43 30C40.0604 30 37.6774 32.3433 37.6774 35.2339C37.6774 38.1245 40.0604 40.4678 43 40.4678C45.9396 40.4678 48.3226 38.1245 48.3226 35.2339C48.3226 32.3433 45.9396 30 43 30Z" fill="#19473E"/>
    <path d="M37.3226 43.2593C34.383 43.2593 32 45.6026 32 48.4932V50.1517C32 51.203 32.7748 52.0993 33.8299 52.2687C39.9031 53.2438 46.0969 53.2438 52.1701 52.2687C53.2252 52.0993 54 51.203 54 50.1517V48.4932C54 45.6026 51.617 43.2593 48.6774 43.2593H48.1936C47.9317 43.2593 47.6715 43.3 47.4226 43.3799L46.1941 43.7744C44.1186 44.4408 41.8814 44.4408 39.8059 43.7744L38.5774 43.3799C38.3285 43.3 38.0683 43.2593 37.8064 43.2593H37.3226Z" fill="#19473E"/>
    <path fill-rule="evenodd" clip-rule="evenodd" d="M51.9683 35.8884C50.4337 32.1215 53.2049 28 57.2725 28H57.4987C60.537 28 63 30.463 63 33.5013C63 36.8951 60.2488 39.6463 56.855 39.6463H51.3519C51.2026 39.6463 51.0695 39.552 51.02 39.4112C50.9704 39.2704 51.0151 39.1136 51.1316 39.0201L52.5189 37.9059C52.6402 37.8085 52.6831 37.6429 52.6244 37.4988L51.9683 35.8884ZM57.2205 31.9925C57.5481 31.9925 57.8137 31.7269 57.8137 31.3993C57.8137 31.0717 57.5481 30.8061 57.2205 30.8061C56.8929 30.8061 56.6273 31.0717 56.6273 31.3993C56.6273 31.7269 56.8929 31.9925 57.2205 31.9925ZM57.6654 33.4756C57.6654 33.2298 57.4662 33.0307 57.2205 33.0307C56.9748 33.0307 56.7756 33.2298 56.7756 33.4756V36.4416C56.7756 36.6873 56.9748 36.8865 57.2205 36.8865C57.4662 36.8865 57.6654 36.6873 57.6654 36.4416V33.4756Z" fill="#E7B900"/>
  </g>
</svg>