<svg xmlns="http://www.w3.org/2000/svg" width="40" height="40" viewBox="0 0 40 40" fill="none">
  <mask id="mask0_17_22097" style="mask-type:luminance" maskUnits="userSpaceOnUse" x="7" y="7" width="18" height="26">
    <path d="M7.26562 7.51562H24.6449V32.4786H7.26562V7.51562Z" fill="white"/>
  </mask>
  <g mask="url(#mask0_17_22097)">
    <path d="M8.26562 7.51562H23.6397C24.1919 7.51562 24.6397 7.96335 24.6397 8.51543V9.88812C24.6397 10.0224 24.5502 10.1418 24.4159 10.1717C24.0129 10.3208 23.6098 10.5 23.2515 10.7386V28.8677C23.2666 28.8528 23.2963 28.838 23.3262 28.8229C23.565 28.7037 23.8636 28.5544 24.2367 28.4053C24.386 28.3455 24.565 28.4201 24.6248 28.5693C24.6397 28.614 24.6397 28.6439 24.6397 28.6887V31.479C24.6397 32.0311 24.1919 32.4786 23.6397 32.4786H8.26562C7.71335 32.4786 7.26562 32.0311 7.26562 31.479V8.51543C7.26562 7.96335 7.71335 7.51562 8.26562 7.51562Z" fill="#19473E"/>
  </g>
  <mask id="mask1_17_22097" style="mask-type:luminance" maskUnits="userSpaceOnUse" x="22" y="8" width="11" height="22">
    <path d="M22.6172 8.64062H32.7441V29.727H22.6172V8.64062Z" fill="white"/>
  </mask>
  <g mask="url(#mask1_17_22097)">
    <path d="M25.6265 28.5837C24.2236 28.9418 23.5071 29.3895 23.1489 29.6431C23.0891 29.6879 23.0295 29.7176 22.9549 29.7176C22.7907 29.7176 22.6562 29.5833 22.6562 29.4192V10.5739C22.6562 10.4695 22.701 10.38 22.7757 10.3202C25.6564 8.38061 32.0449 8.69388 32.4329 8.72378H32.4479C32.6121 8.72378 32.7463 8.85804 32.7463 9.0222V27.7629C32.7315 27.9271 32.5972 28.0614 32.4329 28.0465C29.2238 27.9271 27.0745 28.2107 25.6265 28.5837Z" fill="#E6E6E6"/>
  </g>
  <path d="M8.94705 10.2812H22.9478C23.112 10.2812 23.2462 10.4155 23.2462 10.5797V29.425C23.2462 29.5891 23.112 29.7234 22.9478 29.7234H8.94705C8.78289 29.7234 8.64844 29.5891 8.64844 29.425V10.5797C8.64844 10.4155 8.78289 10.2812 8.94705 10.2812Z" fill="white"/>
  <path d="M12.7439 13.8906C12.5647 13.8906 12.4453 14.0249 12.4453 14.189C12.4453 14.3532 12.5647 14.4875 12.7439 14.4875H19.1621C19.3263 14.4875 19.4606 14.3532 19.4606 14.189C19.4606 14.0249 19.3263 13.8906 19.1621 13.8906H12.7439Z" fill="#19473E"/>
  <path d="M11.2906 16.2188C11.1116 16.2188 10.9922 16.353 10.9922 16.5172C10.9922 16.6813 11.1116 16.8156 11.2906 16.8156H20.6046C20.7688 16.8156 20.9031 16.6813 20.9031 16.5172C20.9031 16.353 20.7688 16.2188 20.6046 16.2188H11.2906Z" fill="#19473E"/>
  <path d="M11.2906 18.5469C11.1116 18.5469 10.9922 18.6661 10.9922 18.8453C10.9922 19.0095 11.1116 19.1437 11.2906 19.1437H20.6046C20.7688 19.1437 20.9031 19.0095 20.9031 18.8453C20.9031 18.6661 20.7688 18.5469 20.6046 18.5469H11.2906Z" fill="#19473E"/>
  <path d="M11.2906 20.8594C11.1116 20.8594 10.9922 20.9936 10.9922 21.1578C10.9922 21.322 11.1116 21.4562 11.2906 21.4562H20.6046C20.7688 21.4562 20.9031 21.322 20.9031 21.1578C20.9031 20.9936 20.7688 20.8594 20.6046 20.8594H11.2906Z" fill="#19473E"/>
  <path d="M11.2906 23.1875C11.1116 23.1875 10.9922 23.3218 10.9922 23.4859C10.9922 23.6501 11.1116 23.7843 11.2906 23.7843H20.6046C20.7688 23.7843 20.9031 23.6501 20.9031 23.4859C20.9031 23.3218 20.7688 23.1875 20.6046 23.1875H11.2906Z" fill="#19473E"/>
  <path d="M11.2906 25.5C11.1116 25.5 10.9922 25.6343 10.9922 25.7984C10.9922 25.9626 11.1116 26.0968 11.2906 26.0968H20.6046C20.7688 26.0968 20.9031 25.9626 20.9031 25.7984C20.9031 25.6343 20.7688 25.5 20.6046 25.5H11.2906Z" fill="#19473E"/>
  <path d="M14.1578 30.4922C13.9936 30.4922 13.8594 30.6264 13.8594 30.7906C13.8594 30.9548 13.9936 31.089 14.1578 31.089H17.7402C17.9043 31.089 18.0388 30.9548 18.0388 30.7906C18.0388 30.6264 17.9043 30.4922 17.7402 30.4922H14.1578Z" fill="white"/>
  <path d="M25.0892 15.8462C24.9399 15.9357 24.91 16.1148 24.9846 16.2641C25.0741 16.3983 25.2682 16.4431 25.4027 16.3536C25.4027 16.3536 27.2086 15.2046 29.9848 15.8462C30.1492 15.8761 30.3133 15.7866 30.3432 15.6225C30.3729 15.4583 30.2834 15.3092 30.1193 15.2643C27.1042 14.5631 25.0892 15.8462 25.0892 15.8462Z" fill="#19473E"/>
  <path d="M25.1752 18.1588C25.041 18.2483 24.996 18.4273 25.0857 18.5764C25.1752 18.7107 25.3542 18.7556 25.4887 18.6659C25.5035 18.6659 27.3097 17.517 30.0711 18.1588C30.2352 18.1885 30.3994 18.099 30.4293 17.9349C30.474 17.7707 30.3695 17.6216 30.2053 17.5768C27.1903 16.8754 25.1901 18.1588 25.1752 18.1588Z" fill="#19473E"/>
  <path d="M25.0892 20.4809C24.9399 20.5704 24.91 20.7644 24.9846 20.8987C25.0741 21.033 25.2682 21.0777 25.4027 20.9882C25.4027 20.9882 27.2086 19.8393 29.9848 20.4809C30.1492 20.5256 30.3133 20.4213 30.3432 20.2571C30.3729 20.1078 30.2834 19.9438 30.1193 19.8991C27.1042 19.2126 25.0892 20.4809 25.0892 20.4809Z" fill="#19473E"/>
  <path d="M25.1752 22.7935C25.041 22.883 24.996 23.0768 25.0857 23.2111C25.1752 23.3456 25.3542 23.3903 25.4887 23.3008C25.5035 23.3008 27.3097 22.1519 30.0711 22.7935C30.2352 22.8382 30.3994 22.7337 30.4293 22.5695C30.474 22.4204 30.3695 22.2562 30.2053 22.2115C27.1903 21.5251 25.1901 22.7935 25.1752 22.7935Z" fill="#19473E"/>
</svg>