<svg xmlns="http://www.w3.org/2000/svg" width="40" height="40" viewBox="0 0 40 40" fill="none">
  <mask id="mask0_17_22364" style="mask-type:luminance" maskUnits="userSpaceOnUse" x="4" y="4" width="15" height="15">
    <path d="M4.98438 4.98438H18.4705V18.4703H4.98438V4.98438Z" fill="white"/>
  </mask>
  <g mask="url(#mask0_17_22364)">
    <path d="M15.8081 4.98438H7.62539C6.17535 4.98438 4.98438 6.17535 4.98438 7.62539V15.8081C4.98438 17.2581 6.17535 18.4491 7.62539 18.4491H15.8081C17.2581 18.4491 18.4491 17.2581 18.4491 15.8081V7.62539C18.4491 6.17535 17.2581 4.98438 15.8081 4.98438Z" fill="#19473E"/>
  </g>
  <mask id="mask1_17_22364" style="mask-type:luminance" maskUnits="userSpaceOnUse" x="21" y="4" width="15" height="15">
    <path d="M21.5312 4.98438H35.0204V18.4703H21.5312V4.98438Z" fill="white"/>
  </mask>
  <g mask="url(#mask1_17_22364)">
    <path d="M32.3784 4.98438H24.1957C22.7457 4.98438 21.5547 6.17535 21.5547 7.62539V15.8081C21.5547 17.2581 22.7457 18.4491 24.1957 18.4491H32.3784C33.8284 18.4491 35.0194 17.2581 35.0194 15.8081V7.62539C35.0194 6.17535 33.8284 4.98438 32.3784 4.98438Z" fill="#19473E"/>
  </g>
  <mask id="mask2_17_22364" style="mask-type:luminance" maskUnits="userSpaceOnUse" x="4" y="21" width="15" height="15">
    <path d="M4.98438 21.5312H18.4705V35.0206H4.98438V21.5312Z" fill="white"/>
  </mask>
  <g mask="url(#mask2_17_22364)">
    <path d="M15.8081 21.5547H7.62539C6.17535 21.5547 4.98438 22.7457 4.98438 24.1957V32.3784C4.98438 33.8284 6.17535 35.0196 7.62539 35.0196H15.8081C17.2581 35.0196 18.4491 33.8284 18.4491 32.3784V24.1957C18.4491 22.7457 17.2581 21.5547 15.8081 21.5547Z" fill="#19473E"/>
  </g>
  <mask id="mask3_17_22364" style="mask-type:luminance" maskUnits="userSpaceOnUse" x="21" y="21" width="15" height="15">
    <path d="M21.5312 21.5312H35.0204V35.0206H21.5312V21.5312Z" fill="white"/>
  </mask>
  <g mask="url(#mask3_17_22364)">
    <path d="M32.3784 21.5547H24.1957C22.7457 21.5547 21.5547 22.7457 21.5547 24.1957V32.3784C21.5547 33.8284 22.7457 35.0196 24.1957 35.0196H32.3784C33.8284 35.0196 35.0194 33.8284 35.0194 32.3784V24.1957C35.0194 22.7457 33.8284 21.5547 32.3784 21.5547Z" fill="#19473E"/>
  </g>
</svg>