<svg xmlns="http://www.w3.org/2000/svg" width="90" height="90" viewBox="0 0 90 90" fill="none">
  <g filter="url(#filter0_d_17_22199)">
    <path d="M33.6667 43.8333H36.5C37.2792 43.8333 37.9167 43.1958 37.9167 42.4167V39.5833C37.9167 38.8042 37.2792 38.1667 36.5 38.1667H33.6667C32.8875 38.1667 32.25 38.8042 32.25 39.5833V42.4167C32.25 43.1958 32.8875 43.8333 33.6667 43.8333ZM33.6667 50.9167H36.5C37.2792 50.9167 37.9167 50.2792 37.9167 49.5V46.6667C37.9167 45.8875 37.2792 45.25 36.5 45.25H33.6667C32.8875 45.25 32.25 45.8875 32.25 46.6667V49.5C32.25 50.2792 32.8875 50.9167 33.6667 50.9167ZM33.6667 36.75H36.5C37.2792 36.75 37.9167 36.1125 37.9167 35.3333V32.5C37.9167 31.7208 37.2792 31.0833 36.5 31.0833H33.6667C32.8875 31.0833 32.25 31.7208 32.25 32.5V35.3333C32.25 36.1125 32.8875 36.75 33.6667 36.75ZM40.75 43.8333H54.9167C55.6958 43.8333 56.3333 43.1958 56.3333 42.4167V39.5833C56.3333 38.8042 55.6958 38.1667 54.9167 38.1667H40.75C39.9708 38.1667 39.3333 38.8042 39.3333 39.5833V42.4167C39.3333 43.1958 39.9708 43.8333 40.75 43.8333ZM40.75 50.9167H54.9167C55.6958 50.9167 56.3333 50.2792 56.3333 49.5V46.6667C56.3333 45.8875 55.6958 45.25 54.9167 45.25H40.75C39.9708 45.25 39.3333 45.8875 39.3333 46.6667V49.5C39.3333 50.2792 39.9708 50.9167 40.75 50.9167ZM39.3333 32.5V35.3333C39.3333 36.1125 39.9708 36.75 40.75 36.75H54.9167C55.6958 36.75 56.3333 36.1125 56.3333 35.3333V32.5C56.3333 31.7208 55.6958 31.0833 54.9167 31.0833H40.75C39.9708 31.0833 39.3333 31.7208 39.3333 32.5Z" fill="#1E5B50"/>
    <path d="M50.6359 35C50.7484 35 50.8563 35.0428 50.9359 35.1189L53.3358 37.4144C53.5014 37.5729 53.5014 37.8298 53.3358 37.9883L45.5362 45.4488C45.4829 45.4997 45.4163 45.5362 45.3434 45.5544L42.095 46.366C41.9493 46.4024 41.7943 46.3622 41.6878 46.2604C41.5813 46.1585 41.5393 46.0102 41.5773 45.8709L42.4258 42.7637C42.4449 42.694 42.483 42.6303 42.5363 42.5793L50.3359 35.1189C50.4155 35.0428 50.5234 35 50.6359 35Z" fill="#E09F00"/>
    <path d="M41.6364 47.7826C41.2849 47.7826 41 48.0551 41 48.3913C41 48.7275 41.2849 49 41.6364 49H54.3636C54.7151 49 55 48.7275 55 48.3913C55 48.0551 54.7151 47.7826 54.3636 47.7826H41.6364Z" fill="#E09F00"/>
  </g>
</svg>