<svg width="950" height="285" viewBox="0 0 950 285" fill="none" xmlns="http://www.w3.org/2000/svg">
<path fill-rule="evenodd" clip-rule="evenodd" d="M958.458 318.958C838.185 205.645 678.329 148.309 520.504 161.92C458.422 167.194 397.017 183.017 335.274 194.246C273.531 205.475 210.265 211.941 149.537 198.5C88.9776 185.229 30.4484 150.01 -3.72186 91.6523L-40.5986 413.215L847.658 516.149L958.458 318.958Z" fill="#11867A"/>
<path d="M256.446 365.406H903.988V207.517H900.267C900.605 206.496 900.774 205.306 900.774 204.285C900.774 199.521 897.729 195.437 893.5 193.906V193.736C893.5 192.035 892.485 190.674 890.963 190.163L890.456 188.462C890.625 188.292 890.625 188.122 890.625 187.951C890.625 187.611 890.456 187.271 890.117 187.101L889.779 181.997L889.441 187.101C889.102 187.271 888.933 187.611 888.933 187.951C888.933 188.122 888.933 188.292 889.102 188.462L888.595 189.993C887.072 190.503 886.057 191.865 886.057 193.566V193.736C882.843 194.927 880.137 197.649 879.291 201.052V188.122H879.46C879.968 188.122 880.306 187.781 880.306 187.271V186.76C880.306 186.25 879.968 185.91 879.46 185.91H878.276C878.276 185.569 878.276 185.229 878.276 184.889C878.276 182.507 877.092 180.465 875.231 179.274C874.047 178.594 873.201 177.573 872.355 176.552C872.525 176.382 872.525 176.212 872.525 176.042C872.525 175.701 872.355 175.531 872.017 175.361L871.848 172.469H871.679L871.51 175.361C871.171 175.531 871.002 175.701 871.002 176.042C871.002 176.212 871.171 176.382 871.171 176.552C870.326 177.573 869.48 178.594 868.296 179.274C866.435 180.465 865.251 182.507 865.251 184.889C865.251 185.229 865.251 185.569 865.251 185.91H864.067C863.559 185.91 863.221 186.25 863.221 186.76V187.271C863.221 187.781 863.559 188.122 864.067 188.122H864.236V200.372H861.36C862.037 199.01 862.544 197.479 862.544 195.948C862.544 190.674 857.639 185.91 850.534 183.358C845.797 181.656 841.738 179.444 838.693 176.722C838.862 176.552 838.862 176.212 838.862 175.872C838.862 175.191 838.524 174.51 837.847 174.34L837.339 167.705H836.832L836.324 174.34C835.648 174.681 835.31 175.191 835.31 175.872C835.31 176.212 835.31 176.382 835.479 176.722C832.434 179.444 828.374 181.656 823.638 183.358C820.423 184.549 817.717 186.08 815.687 187.951V184.889H816.195V182.507H817.04V179.615H815.687V156.646H816.195V154.264H817.04V151.372H815.687C815.687 148.819 815.518 146.267 815.18 143.715C815.18 143.715 812.135 123.299 811.458 123.299C810.781 123.299 807.567 143.545 807.567 143.545C807.229 146.097 807.06 148.819 806.891 151.372H805.537V154.264H806.383V156.646H806.891V179.955H805.537C801.647 168.896 791.497 160.729 779.318 160.049V159.028C779.318 158.687 778.979 158.347 778.641 158.347H778.134L777.626 147.288C778.81 147.628 780.164 147.799 781.517 147.628C783.716 147.288 785.577 145.927 786.761 144.226C785.915 144.736 784.9 145.076 783.885 145.247C779.487 146.097 775.427 143.035 774.581 138.781C774.243 136.569 774.75 134.528 775.935 132.826C773.228 134.528 771.706 137.76 772.213 140.993C772.721 143.885 774.581 145.927 776.949 146.948L776.442 158.177H775.935C775.765 158.177 775.596 158.177 775.427 158.347C775.258 158.517 775.258 158.687 775.258 158.858V159.878C763.078 160.729 752.929 169.066 749.376 180.295V156.306H750.053V153.413H751.068V149.67H749.376V119.896H750.053V117.003H751.068V113.26H749.207C749.207 110.028 748.869 106.625 748.531 103.562C748.531 103.562 744.64 77.3611 743.794 77.3611C742.948 77.3611 738.889 103.222 738.889 103.222C738.381 106.455 738.212 109.858 738.043 113.26H736.182V117.003H737.197V119.896H737.874V149.67H736.182V153.413H737.197V156.306H737.874V167.535C730.092 152.052 715.883 141.163 699.136 139.122V136.91C699.136 135.889 698.629 134.868 697.952 134.868H695.584L693.892 118.024H693.215L691.524 134.868H689.156C688.479 134.868 687.972 135.719 687.972 136.91V139.122C674.946 140.653 663.443 147.799 655.324 158.007C653.125 137.76 641.622 121.087 611.004 108.837C591.043 100.67 584.277 88.7604 582.247 83.1458C585.461 82.8055 587.829 81.2743 587.829 79.2326C587.829 77.5312 585.63 76 582.754 75.4896L582.247 62.7292C583.262 62.3889 583.938 61.8785 583.938 61.1979C583.938 60.5174 583.262 60.0069 582.247 59.6667L581.739 47.2465C586.137 48.2674 591.043 48.0972 595.61 46.3958C602.546 44.0139 607.959 39.0799 610.835 32.7847C608.297 34.9965 605.422 36.6979 602.208 37.7187C588.506 42.3125 573.451 34.9965 568.883 21.0451C566.515 14.2396 567.192 7.09375 570.067 0.96875C562.117 7.7743 558.734 19.0035 562.286 29.5521C565.162 38.3993 572.266 44.5243 580.555 46.7361L579.879 59.3264C578.694 59.4965 577.68 60.1771 577.68 61.0278C577.68 61.7083 578.525 62.3889 579.709 62.7292L579.033 75.3194C575.988 75.8299 573.958 77.191 573.958 79.0625C573.958 81.1042 576.495 82.6354 579.879 82.9757C577.68 88.5903 571.082 100.5 551.121 108.497C518.643 121.597 507.647 139.632 506.463 161.58C498.344 148.99 485.488 140.483 470.94 138.611V136.399C470.94 135.378 470.432 134.358 469.756 134.358H467.387L465.696 117.514H465.019L463.328 134.358H461.805C461.129 134.358 460.621 135.208 460.621 136.399V138.611C442.183 140.823 426.789 153.924 419.685 171.958V155.795H420.361V152.903H421.376V149.16H419.685V119.896H420.361V117.003H421.376V113.26H419.515C419.515 110.028 419.177 106.625 418.839 103.562C418.839 103.562 414.948 77.3611 414.102 77.3611C413.256 77.3611 409.197 103.222 409.197 103.222C408.689 106.455 408.52 109.858 408.351 113.26H406.49V117.003H407.505V119.896H408.182V149.67H406.49V153.413H407.505V156.306H408.182V176.722C403.614 167.194 394.311 160.389 383.146 159.708V158.687C383.146 158.347 382.808 158.007 382.469 158.007H381.962L381.454 146.948C382.639 147.288 383.992 147.458 385.345 147.288C387.544 146.948 389.405 145.587 390.589 143.885C389.743 144.396 388.728 144.736 387.713 144.906C383.315 145.757 379.255 142.694 378.41 138.441C378.071 136.229 378.579 134.187 379.763 132.486C377.056 134.187 375.534 137.42 376.041 140.653C376.549 143.545 378.41 145.587 380.778 146.608L380.27 157.837H379.763C379.594 157.837 379.425 157.837 379.255 158.007C379.086 158.177 379.086 158.347 379.086 158.517V159.538C367.076 160.389 357.095 168.385 353.374 179.444H352.359V156.646H352.866V154.264H353.712V151.372H352.359C352.359 148.819 352.19 146.267 351.852 143.715C351.852 143.715 348.807 123.299 348.13 123.299C347.453 123.299 344.239 143.545 344.239 143.545C343.901 146.097 343.732 148.819 343.563 151.372H342.209V154.264H343.055V156.646H343.563V179.955H342.209V182.847H343.055V185.229H343.563V187.951C341.533 186.25 338.995 184.889 335.951 183.698C331.214 181.997 327.154 179.785 324.109 177.062C324.279 176.892 324.279 176.552 324.279 176.212C324.279 175.531 323.94 174.851 323.264 174.681L322.756 168.045H322.249L321.741 174.681C321.064 175.021 320.726 175.531 320.726 176.212C320.726 176.552 320.726 176.722 320.895 177.062C317.85 179.785 313.791 181.997 309.054 183.698C301.78 186.25 297.044 191.014 297.044 196.288C297.044 197.819 297.382 199.351 298.228 200.712H296.029V188.462H296.198C296.706 188.462 297.044 188.122 297.044 187.611V187.101C297.044 186.59 296.706 186.25 296.198 186.25H295.014C295.014 185.91 295.014 185.569 295.014 185.229C295.014 182.847 293.83 180.806 291.969 179.615C290.785 178.934 289.77 177.913 289.093 176.892C289.262 176.722 289.262 176.552 289.262 176.382C289.262 176.042 289.093 175.872 288.755 175.701L288.586 172.809H288.417L288.248 175.701C287.909 175.872 287.74 176.042 287.74 176.382C287.74 176.552 287.909 176.722 287.909 176.892C287.063 177.913 286.218 178.934 285.033 179.615C283.173 180.806 281.989 182.847 281.989 185.229C281.989 185.569 281.989 185.91 281.989 186.25H280.805C280.297 186.25 279.959 186.59 279.959 187.101V187.611C279.959 188.122 280.297 188.462 280.805 188.462H280.974V201.392C279.959 197.99 277.421 195.267 274.207 194.076V193.906C274.207 192.205 273.192 190.844 271.67 190.333L271.162 188.802C271.332 188.632 271.332 188.462 271.332 188.292C271.332 187.951 271.162 187.611 270.824 187.441L270.486 182.337L270.147 187.441C269.809 187.611 269.64 187.951 269.64 188.292C269.64 188.462 269.64 188.632 269.809 188.802L269.302 190.503C267.779 191.014 266.764 192.375 266.764 194.076V194.247C262.535 195.778 259.49 199.861 259.49 204.625C259.49 205.816 259.66 206.837 259.998 207.858H256.276V365.406H256.446ZM875.908 193.906C875.908 192.205 876.415 190.674 877.092 190.333C877.769 190.844 878.276 192.205 878.276 193.906V200.712H875.908V193.906ZM868.803 193.226C868.803 191.354 870.156 189.653 871.848 189.142C873.54 189.653 874.893 191.184 874.893 193.226V200.712H870.326V200.542H868.803V193.226ZM865.42 193.906C865.42 192.205 865.927 190.674 866.604 190.333C867.281 190.844 867.788 192.205 867.788 193.906V200.542H865.42V193.906ZM292.815 193.906C292.815 192.205 293.322 190.674 293.999 190.333C294.676 190.844 295.183 192.205 295.183 193.906V200.542H292.815V193.906ZM285.71 193.226C285.71 191.354 287.063 189.653 288.755 189.142C290.447 189.653 291.8 191.184 291.8 193.226V200.542H290.277V200.712H285.71V193.226ZM282.327 193.906C282.327 192.205 282.834 190.674 283.511 190.333C284.188 190.844 284.695 192.205 284.695 193.906V200.712H282.327V193.906Z" fill="#197E74"/>
<g filter="url(#filter0_d_1_5409)">
<path fill-rule="evenodd" clip-rule="evenodd" d="M-45.6735 163.962C-0.169621 213.473 68.1709 240.865 134.989 236.271C188.105 232.698 238.684 210.24 291.8 208.198C354.389 205.816 414.102 232.018 475.507 244.948C562.455 263.323 653.463 254.816 739.734 233.379C826.006 211.771 908.386 177.403 990.598 143.035L1012.08 515.98L-48.2109 577.91L-45.6735 163.962Z" fill="#11867A"/>
</g>
<g filter="url(#filter1_d_1_5409)">
<path fill-rule="evenodd" clip-rule="evenodd" d="M-32.8174 318.959C116.72 365.577 282.665 357.24 426.789 295.65C474.323 275.403 519.489 249.542 567.699 231.167C616.079 212.962 669.195 202.414 719.435 214.153C759.526 223.681 795.557 246.65 835.817 255.497C889.948 267.236 949.154 250.563 989.245 212.111V513.427H-29.4342L-32.8174 318.959Z" fill="#11867A"/>
</g>
<defs>
<filter id="filter0_d_1_5409" x="-48.2109" y="63.0352" width="1240.29" height="594.875" filterUnits="userSpaceOnUse" color-interpolation-filters="sRGB">
<feFlood flood-opacity="0" result="BackgroundImageFix"/>
<feColorMatrix in="SourceAlpha" type="matrix" values="0 0 0 0 0 0 0 0 0 0 0 0 0 0 0 0 0 0 127 0" result="hardAlpha"/>
<feOffset dx="100"/>
<feGaussianBlur stdDeviation="40"/>
<feComposite in2="hardAlpha" operator="out"/>
<feColorMatrix type="matrix" values="0 0 0 0 0.0313726 0 0 0 0 0.0941176 0 0 0 0 0.113725 0 0 0 1 0"/>
<feBlend mode="soft-light" in2="BackgroundImageFix" result="effect1_dropShadow_1_5409"/>
<feBlend mode="normal" in="SourceGraphic" in2="effect1_dropShadow_1_5409" result="shape"/>
</filter>
<filter id="filter1_d_1_5409" x="-62.8174" y="133.206" width="1182.06" height="464.222" filterUnits="userSpaceOnUse" color-interpolation-filters="sRGB">
<feFlood flood-opacity="0" result="BackgroundImageFix"/>
<feColorMatrix in="SourceAlpha" type="matrix" values="0 0 0 0 0 0 0 0 0 0 0 0 0 0 0 0 0 0 127 0" result="hardAlpha"/>
<feOffset dx="50" dy="4"/>
<feGaussianBlur stdDeviation="40"/>
<feComposite in2="hardAlpha" operator="out"/>
<feColorMatrix type="matrix" values="0 0 0 0 0.0309375 0 0 0 0 0.0923742 0 0 0 0 0.1125 0 0 0 1 0"/>
<feBlend mode="overlay" in2="BackgroundImageFix" result="effect1_dropShadow_1_5409"/>
<feBlend mode="normal" in="SourceGraphic" in2="effect1_dropShadow_1_5409" result="shape"/>
</filter>
</defs>
</svg>
