<svg width="1920" height="950" viewBox="0 0 1920 950" fill="none" xmlns="http://www.w3.org/2000/svg">
<path fill-rule="evenodd" clip-rule="evenodd" d="M2558.65 1010.84C2223.68 650.635 1778.47 468.37 1338.92 511.638C1166.01 528.404 994.996 578.702 823.036 614.398C651.076 650.094 474.876 670.646 305.743 627.919C137.08 585.733 -25.9281 473.779 -121.095 288.27L-223.8 1310.46L2250.07 1637.67L2558.65 1010.84Z" fill="#11867A"/>
<path d="M603.493 1158.49H2406.95V656.584H2396.59C2397.53 653.339 2398 649.553 2398 646.308C2398 631.164 2389.52 618.184 2377.74 613.316V612.776C2377.74 607.367 2374.92 603.04 2370.68 601.418L2369.26 596.009C2369.73 595.469 2369.73 594.928 2369.73 594.387C2369.73 593.305 2369.26 592.223 2368.32 591.683L2367.38 575.457L2366.44 591.683C2365.49 592.223 2365.02 593.305 2365.02 594.387C2365.02 594.928 2365.02 595.469 2365.49 596.009L2364.08 600.877C2359.84 602.499 2357.01 606.826 2357.01 612.235V612.776C2348.06 616.561 2340.52 625.215 2338.17 636.032V594.928H2338.64C2340.05 594.928 2340.99 593.846 2340.99 592.223V590.601C2340.99 588.978 2340.05 587.897 2338.64 587.897H2335.34C2335.34 586.815 2335.34 585.733 2335.34 584.652C2335.34 577.08 2332.04 570.59 2326.86 566.804C2323.56 564.64 2321.21 561.395 2318.85 558.15C2319.32 557.609 2319.32 557.069 2319.32 556.528C2319.32 555.446 2318.85 554.905 2317.91 554.364L2317.44 545.17H2316.97L2316.5 554.364C2315.55 554.905 2315.08 555.446 2315.08 556.528C2315.08 557.069 2315.55 557.609 2315.55 558.15C2313.2 561.395 2310.84 564.64 2307.54 566.804C2302.36 570.59 2299.06 577.08 2299.06 584.652C2299.06 585.733 2299.06 586.815 2299.06 587.897H2295.77C2294.35 587.897 2293.41 588.978 2293.41 590.601V592.223C2293.41 593.846 2294.35 594.928 2295.77 594.928H2296.24V633.868H2288.23C2290.11 629.542 2291.53 624.674 2291.53 619.807C2291.53 603.04 2277.86 587.897 2258.08 579.784C2244.89 574.376 2233.58 567.345 2225.1 558.691C2225.57 558.15 2225.57 557.069 2225.57 555.987C2225.57 553.824 2224.63 551.66 2222.74 551.119L2221.33 530.026H2219.92L2218.5 551.119C2216.62 552.201 2215.68 553.824 2215.68 555.987C2215.68 557.069 2215.68 557.609 2216.15 558.691C2207.67 567.345 2196.36 574.376 2183.17 579.784C2174.22 583.57 2166.68 588.438 2161.03 594.387V584.652H2162.44V577.08H2164.79V567.885H2161.03V494.872H2162.44V487.3H2164.79V478.106H2161.03C2161.03 469.993 2160.55 461.88 2159.61 453.768C2159.61 453.768 2151.13 388.866 2149.25 388.866C2147.36 388.866 2138.41 453.227 2138.41 453.227C2137.47 461.339 2137 469.993 2136.53 478.106H2132.76V487.3H2135.11V494.872H2136.53V568.967H2132.76C2121.92 533.812 2093.66 507.852 2059.73 505.689V502.443C2059.73 501.362 2058.79 500.28 2057.85 500.28H2056.44L2055.02 465.125C2058.32 466.207 2062.09 466.748 2065.86 466.207C2071.98 465.125 2077.17 460.799 2080.46 455.39C2078.11 457.013 2075.28 458.094 2072.45 458.635C2060.21 461.339 2048.9 451.604 2046.54 438.083C2045.6 431.052 2047.01 424.562 2050.31 419.154C2042.77 424.562 2038.53 434.838 2039.95 445.114C2041.36 454.308 2046.54 460.799 2053.14 464.044L2051.73 499.739H2050.31C2049.84 499.739 2049.37 499.739 2048.9 500.28C2048.43 500.821 2048.43 501.362 2048.43 501.903V505.148C2014.51 507.852 1986.24 534.353 1976.35 570.049V493.79H1978.23V484.596H1981.06V472.697H1976.35V378.049H1978.23V368.855H1981.06V356.957H1975.87C1975.87 346.681 1974.93 335.864 1973.99 326.129C1973.99 326.129 1963.15 242.839 1960.8 242.839C1958.44 242.839 1947.14 325.047 1947.14 325.047C1945.72 335.323 1945.25 346.14 1944.78 356.957H1939.6V368.855H1942.42V378.049H1944.31V472.697H1939.6V484.596H1942.42V493.79H1944.31V529.486C1922.64 480.269 1883.06 445.655 1836.42 439.165V432.134C1836.42 428.889 1835.01 425.644 1833.12 425.644H1826.53L1821.82 372.1H1819.93L1815.22 425.644H1808.63C1806.74 425.644 1805.33 428.348 1805.33 432.134V439.165C1769.05 444.032 1737.01 466.748 1714.4 499.198C1708.28 434.838 1676.24 381.835 1590.97 342.895C1535.37 316.934 1516.53 279.075 1510.88 261.227C1519.83 260.146 1526.42 255.278 1526.42 248.788C1526.42 243.38 1520.3 238.512 1512.29 236.889L1510.88 196.326C1513.7 195.244 1515.59 193.622 1515.59 191.459C1515.59 189.295 1513.7 187.673 1510.88 186.591L1509.46 147.109C1521.71 150.354 1535.37 149.814 1548.09 144.405C1567.41 136.833 1582.49 121.149 1590.5 101.138C1583.43 108.169 1575.42 113.577 1566.47 116.822C1528.31 131.425 1486.38 108.169 1473.66 63.8195C1467.06 42.1858 1468.95 19.4704 1476.95 0C1454.81 21.6337 1445.39 57.3294 1455.28 90.8617C1463.29 118.986 1483.08 138.456 1506.16 145.487L1504.28 185.509C1500.98 186.05 1498.16 188.213 1498.16 190.918C1498.16 193.081 1500.51 195.244 1503.81 196.326L1501.92 236.349C1493.44 237.971 1487.79 242.298 1487.79 248.247C1487.79 254.737 1494.86 259.605 1504.28 260.686C1498.16 278.534 1479.78 316.393 1424.19 341.813C1333.73 383.458 1303.11 440.787 1299.81 510.556C1277.2 470.534 1241.39 443.492 1200.88 437.542V430.511C1200.88 427.266 1199.46 424.021 1197.58 424.021H1190.98L1186.27 370.478H1184.39L1179.68 424.021H1175.44C1173.55 424.021 1172.14 426.725 1172.14 430.511V437.542C1120.79 444.573 1077.91 486.218 1058.13 543.548V492.167H1060.01V482.973H1062.84V471.075H1058.13V378.049H1060.01V368.855H1062.84V356.957H1057.66C1057.66 346.681 1056.71 335.864 1055.77 326.129C1055.77 326.129 1044.93 242.839 1042.58 242.839C1040.22 242.839 1028.92 325.047 1028.92 325.047C1027.5 335.323 1027.03 346.14 1026.56 356.957H1021.38V368.855H1024.21V378.049H1026.09V472.697H1021.38V484.596H1024.21V493.79H1026.09V558.691C1013.37 528.404 987.458 506.77 956.364 504.607V501.362C956.364 500.28 955.422 499.198 954.479 499.198H953.066L951.653 464.044C954.95 465.125 958.719 465.666 962.488 465.125C968.613 464.044 973.795 459.717 977.093 454.308C974.738 455.931 971.911 457.013 969.084 457.553C956.835 460.258 945.528 450.523 943.172 437.001C942.23 429.97 943.643 423.48 946.941 418.072C939.403 423.48 935.163 433.756 936.577 444.032C937.99 453.227 943.172 459.717 949.768 462.962L948.355 498.658H946.941C946.47 498.658 945.999 498.658 945.528 499.198C945.057 499.739 945.057 500.28 945.057 500.821V504.066C911.607 506.77 883.811 532.19 873.446 567.345H870.619V494.872H872.033V487.3H874.388V478.106H870.619C870.619 469.993 870.148 461.88 869.206 453.768C869.206 453.768 860.726 388.866 858.841 388.866C856.957 388.866 848.006 453.227 848.006 453.227C847.063 461.339 846.592 469.993 846.121 478.106H842.352V487.3H844.708V494.872H846.121V568.967H842.352V578.162H844.708V585.733H846.121V594.387C840.468 588.978 833.401 584.652 824.921 580.866C811.729 575.457 800.422 568.426 791.942 559.773C792.413 559.232 792.413 558.15 792.413 557.069C792.413 554.905 791.471 552.742 789.586 552.201L788.173 531.108H786.76L785.346 552.201C783.462 553.283 782.519 554.905 782.519 557.069C782.519 558.15 782.519 558.691 782.991 559.773C774.51 568.426 763.203 575.457 750.012 580.866C729.754 588.978 716.562 604.122 716.562 620.888C716.562 625.756 717.504 630.623 719.86 634.95H713.735V596.009H714.207C715.62 596.009 716.562 594.928 716.562 593.305V591.683C716.562 590.06 715.62 588.978 714.207 588.978H710.909C710.909 587.897 710.909 586.815 710.909 585.733C710.909 578.162 707.611 571.671 702.428 567.885C699.131 565.722 696.304 562.477 694.419 559.232C694.89 558.691 694.89 558.15 694.89 557.609C694.89 556.528 694.419 555.987 693.477 555.446L693.006 546.252H692.535L692.064 555.446C691.121 555.987 690.65 556.528 690.65 557.609C690.65 558.15 691.121 558.691 691.121 559.232C688.766 562.477 686.41 565.722 683.112 567.885C677.93 571.671 674.632 578.162 674.632 585.733C674.632 586.815 674.632 587.897 674.632 588.978H671.334C669.921 588.978 668.979 590.06 668.979 591.683V593.305C668.979 594.928 669.921 596.009 671.334 596.009H671.805V637.113C668.979 626.297 661.912 617.643 652.961 613.857V613.316C652.961 607.908 650.134 603.581 645.894 601.959L644.48 597.091C644.951 596.55 644.951 596.009 644.951 595.469C644.951 594.387 644.48 593.305 643.538 592.764L642.596 576.539L641.654 592.764C640.711 593.305 640.24 594.387 640.24 595.469C640.24 596.009 640.24 596.55 640.711 597.091L639.298 602.5C635.058 604.122 632.231 608.449 632.231 613.857V614.398C620.453 619.266 611.973 632.246 611.973 647.389C611.973 651.175 612.444 654.42 613.386 657.666H603.021V1158.49H603.493ZM2328.75 613.316C2328.75 607.908 2330.16 603.04 2332.04 601.959C2333.93 603.581 2335.34 607.908 2335.34 613.316V634.95H2328.75V613.316ZM2308.96 611.153C2308.96 605.204 2312.73 599.795 2317.44 598.173C2322.15 599.795 2325.92 604.663 2325.92 611.153V634.95H2313.2V634.409H2308.96V611.153ZM2299.54 613.316C2299.54 607.908 2300.95 603.04 2302.83 601.959C2304.72 603.581 2306.13 607.908 2306.13 613.316V634.409H2299.54V613.316ZM704.784 613.316C704.784 607.908 706.197 603.04 708.082 601.959C709.966 603.581 711.38 607.908 711.38 613.316V634.409H704.784V613.316ZM684.997 611.153C684.997 605.204 688.766 599.795 693.477 598.173C698.188 599.795 701.957 604.663 701.957 611.153V634.409H697.717V634.95H684.997V611.153ZM675.574 613.316C675.574 607.908 676.988 603.04 678.872 601.959C680.757 603.581 682.17 607.908 682.17 613.316V634.95H675.574V613.316Z" fill="#197E74"/>
<g filter="url(#filter0_d_1_218)">
<path fill-rule="evenodd" clip-rule="evenodd" d="M-237.933 518.128C-111.201 675.514 79.1328 762.589 265.226 747.987C413.159 736.629 554.025 665.238 701.958 658.748C876.273 651.176 1042.58 734.466 1213.6 775.57C1455.75 833.981 1709.22 806.939 1949.49 738.792C2189.76 670.105 2419.2 560.855 2648.17 451.604L2708 1637.13L-245 1834L-237.933 518.128Z" fill="#11867A"/>
</g>
<g filter="url(#filter1_d_1_218)">
<path fill-rule="evenodd" clip-rule="evenodd" d="M-202.128 1010.84C214.345 1159.03 676.517 1132.53 1077.91 936.741C1210.3 872.381 1336.09 790.172 1470.36 731.761C1605.1 673.891 1753.03 640.359 1892.96 677.677C2004.61 707.964 2104.96 780.978 2217.09 809.102C2367.85 846.42 2532.74 793.418 2644.4 671.187V1629.02H-192.705L-202.128 1010.84Z" fill="#11867A"/>
</g>
<defs>
<filter id="filter0_d_1_218" x="-245" y="371.604" width="3133" height="1542.4" filterUnits="userSpaceOnUse" color-interpolation-filters="sRGB">
<feFlood flood-opacity="0" result="BackgroundImageFix"/>
<feColorMatrix in="SourceAlpha" type="matrix" values="0 0 0 0 0 0 0 0 0 0 0 0 0 0 0 0 0 0 127 0" result="hardAlpha"/>
<feOffset dx="100"/>
<feGaussianBlur stdDeviation="40"/>
<feComposite in2="hardAlpha" operator="out"/>
<feColorMatrix type="matrix" values="0 0 0 0 0.0313726 0 0 0 0 0.0941176 0 0 0 0 0.113725 0 0 0 1 0"/>
<feBlend mode="soft-light" in2="BackgroundImageFix" result="effect1_dropShadow_1_218"/>
<feBlend mode="normal" in="SourceGraphic" in2="effect1_dropShadow_1_218" result="shape"/>
</filter>
<filter id="filter1_d_1_218" x="-232.128" y="585.951" width="3006.53" height="1127.07" filterUnits="userSpaceOnUse" color-interpolation-filters="sRGB">
<feFlood flood-opacity="0" result="BackgroundImageFix"/>
<feColorMatrix in="SourceAlpha" type="matrix" values="0 0 0 0 0 0 0 0 0 0 0 0 0 0 0 0 0 0 127 0" result="hardAlpha"/>
<feOffset dx="50" dy="4"/>
<feGaussianBlur stdDeviation="40"/>
<feComposite in2="hardAlpha" operator="out"/>
<feColorMatrix type="matrix" values="0 0 0 0 0.0309375 0 0 0 0 0.0923742 0 0 0 0 0.1125 0 0 0 1 0"/>
<feBlend mode="overlay" in2="BackgroundImageFix" result="effect1_dropShadow_1_218"/>
<feBlend mode="normal" in="SourceGraphic" in2="effect1_dropShadow_1_218" result="shape"/>
</filter>
</defs>
</svg>
